<svg width="33" height="33" viewBox="0 0 33 33" fill="none" xmlns="http://www.w3.org/2000/svg">
    <g id="Group">
        <path id="Vector"
            d="M16.3902 10.8843L15.4902 14.4142C16.5602 14.6642 19.5902 15.6443 20.0802 13.6743C20.6602 11.6243 17.4602 11.1343 16.3902 10.8843Z"
            fill="#F7931A" />
        <path id="Vector_2"
            d="M20.4095 0.474228C11.7995 -1.65577 3.10948 3.59424 0.979481 12.1142C-1.15052 20.7242 4.0095 29.4142 12.6195 31.5442C21.2295 33.7542 29.9195 28.5143 32.0495 19.9043C34.1895 11.2943 29.0195 2.60423 20.4095 0.474228ZM23.6095 13.7543C23.3595 15.3143 22.4595 16.0543 21.3095 16.2143C22.9495 17.0343 23.6895 18.2642 22.9495 20.4742C21.9695 23.1842 19.7495 23.4242 16.7195 22.8542L15.9795 25.8042L14.2594 25.3943L14.9995 22.5243C14.5895 22.4443 14.0995 22.3643 13.6095 22.1943L12.8695 25.0643L11.1495 24.6543L11.8095 21.7043C11.3995 21.6243 10.9895 21.4543 10.5795 21.3743L8.27947 20.8042L9.17949 18.7543L10.4895 19.0843C10.9795 19.2443 11.2295 18.9242 11.3095 18.6742L12.4595 14.0843L13.2795 10.8042C13.2795 10.4742 13.1995 9.98427 12.4595 9.82427L11.1495 9.49425L11.6395 7.69426L14.0995 8.26427C14.5095 8.34427 14.8395 8.42427 15.2495 8.51427L15.9895 5.64427L17.7095 6.05425L16.9695 8.92424C17.4595 9.00424 17.8695 9.17426 18.3595 9.25426L19.0995 6.46428L20.8195 6.87425L20.0795 9.74425C22.2995 10.4742 23.9395 11.6243 23.6095 13.7543Z"
            fill="#F7931A" />
        <path id="Vector_3"
            d="M15.1597 16.2943L14.1797 20.1443C15.3297 20.3943 19.0197 21.6243 19.5897 19.4043C20.1697 17.1143 16.3097 16.5443 15.1597 16.2943Z"
            fill="#F7931A" />
        <path id="Vector_4"
            d="M12.459 14.0843C12.539 14.1643 12.539 14.1642 12.619 14.1642C12.539 14.0842 12.539 14.0843 12.459 14.0843Z"
            fill="#F7931A" />
        <path id="Vector_5"
            d="M20.0793 9.73425L20.8193 6.86426L19.0993 6.45428L18.3593 9.24426C17.8693 9.16426 17.4593 8.99425 16.9693 8.91425L17.7093 6.04425L15.9893 5.63428L15.2493 8.50427C14.8393 8.42427 14.5093 8.34427 14.0993 8.25427L11.6393 7.68427L11.1493 9.48425L12.4593 9.81427C13.1993 9.97427 13.2793 10.4743 13.2793 10.7943L12.4593 14.0743C12.5393 14.0743 12.5393 14.0743 12.6193 14.1543C12.5393 14.1543 12.5393 14.1543 12.4593 14.0743L11.3093 18.6642C11.2293 18.9142 10.9793 19.2343 10.4893 19.0743L9.17932 18.7443L8.2793 20.7943L10.5793 21.3643C10.9893 21.4443 11.3993 21.6143 11.8093 21.6943L11.1493 24.6443L12.8693 25.0543L13.6093 22.1843C14.0993 22.3443 14.5893 22.4343 14.9993 22.5143L14.2593 25.3843L15.9793 25.7943L16.7193 22.8443C19.7493 23.4143 21.9693 23.1743 22.9493 20.4643C23.6893 18.2543 22.9493 17.0243 21.3093 16.2043C22.4593 16.0443 23.3593 15.3043 23.6093 13.7443C23.9393 11.6243 22.2993 10.4743 20.0793 9.73425ZM19.5893 19.4142C19.0193 21.6242 15.3293 20.3943 14.1793 20.1543L15.1593 16.3043C16.3093 16.5443 20.1693 17.1142 19.5893 19.4142ZM20.0793 13.6743C19.5893 15.6443 16.5493 14.6542 15.4893 14.4142L16.3893 10.8843C17.4593 11.1343 20.6593 11.6243 20.0793 13.6743Z"
            fill="white" />
    </g>
</svg>
    