<svg width="33" height="33" viewBox="0 0 33 33" fill="none" xmlns="http://www.w3.org/2000/svg">
<path d="M19.909 0.474228C11.299 -1.65577 2.60899 3.59424 0.478992 12.1142C-1.65101 20.7242 3.50901 29.4142 12.119 31.5442C20.729 33.7542 29.419 28.5143 31.549 19.9043C33.689 11.2943 28.519 2.60423 19.909 0.474228Z" fill="white"/>
<g clip-path="url(#clip0_2375_13658)">
<path d="M11.6993 26.0002C10.4217 26.0002 9.2809 25.6905 8.27729 25.0703C7.27341 24.4505 6.47948 23.6028 5.89524 22.5272C5.31127 21.451 5.01929 20.2299 5.01929 18.8624C5.01929 17.4951 5.31127 16.2826 5.89552 15.2253C6.47948 14.1497 7.27341 13.311 8.27729 12.7091C9.2809 12.0895 10.4217 11.7796 11.6993 11.7796C12.7211 11.7796 13.6156 11.9709 14.3823 12.3536C14.9965 12.6605 15.5172 13.0671 15.9442 13.5728C16.0407 13.6878 16.2437 13.6228 16.2437 13.4734V6.82888C16.2437 6.75695 16.2947 6.69502 16.3658 6.6803L19.5636 6.01987C19.6588 6.00015 19.7483 6.07208 19.7483 6.16845V25.5202C19.7483 25.5402 19.7444 25.56 19.7367 25.5784C19.7289 25.5969 19.7176 25.6137 19.7034 25.6278C19.6891 25.6419 19.6722 25.6531 19.6536 25.6607C19.635 25.6683 19.6151 25.6722 19.5949 25.6722H16.7532C16.7177 25.6722 16.6833 25.6599 16.6558 25.6375C16.6284 25.6151 16.6097 25.584 16.6029 25.5494L16.3117 24.0741C16.286 23.9436 16.1132 23.9047 16.0279 24.0072C15.6197 24.4954 15.1077 24.932 14.4918 25.3167C13.7799 25.7721 12.8491 26.0002 11.6993 26.0002ZM12.4384 22.9374C13.5699 22.9374 14.4918 22.5636 15.2034 21.816C15.9335 21.0503 16.2986 20.0749 16.2986 18.8899C16.2986 17.7048 15.9335 16.7386 15.2034 15.991C14.4918 15.2253 13.5699 14.8423 12.4384 14.8423C11.3251 14.8423 10.4032 15.2161 9.67338 15.9635C8.94328 16.7111 8.57823 17.6773 8.57823 18.8624C8.57823 20.0474 8.94328 21.0231 9.67338 21.7888C10.4035 22.5544 11.3251 22.9374 12.4384 22.9374Z" fill="#01090F"/>
<path d="M23.6203 25.6166C24.9235 25.6166 25.9797 24.5615 25.9797 23.2598C25.9797 21.9584 24.9232 20.9033 23.6203 20.9033C22.3175 20.9033 21.2612 21.9584 21.2612 23.2598C21.2612 24.5615 22.3175 25.6166 23.6203 25.6166Z" fill="#2C71F0"/>
</g>
<defs>
<clipPath id="clip0_2375_13658">
<rect width="21" height="20" fill="white" transform="translate(4.99951 6)"/>
</clipPath>
</defs>
</svg>
