<svg width="62" height="62" viewBox="0 0 62 62" fill="none" xmlns="http://www.w3.org/2000/svg">
    <g id="dogecoin 1" clip-path="url(#clip0_191_28160)">
        <g id="Group">
            <path id="Vector"
                  d="M31.7437 20.4297H27.3145V29.1621H34.2829V32.8182H27.3145V41.55H31.9607C33.1545 41.55 41.7617 41.6848 41.7484 31.3907C41.735 21.0965 33.4004 20.4297 31.7437 20.4297Z"
                  fill="#C2A633"/>
            <path id="Vector_2"
                  d="M31 0C13.879 0 0 13.879 0 31C0 48.121 13.879 62 31 62C48.121 62 62 48.121 62 31C62 13.879 48.121 0 31 0ZM32.218 47.7431H20.9913V32.8178H17.0339V29.1617H20.991V14.2355H30.6264C32.9059 14.2355 48.0038 13.7621 48.0038 31.2694C48.0038 49.0662 32.2183 47.7431 32.2183 47.7431H32.218Z"
                  fill="#C2A633"/>
        </g>
    </g>
    <defs>
        <clipPath id="clip0_191_28160">
            <rect width="62" height="62" fill="white"/>
        </clipPath>
    </defs>
</svg>
