<svg width="135" height="24" viewBox="0 0 135 24" fill="none" xmlns="http://www.w3.org/2000/svg">
<g id="Group 1">
<path id="Vector" d="M82.958 11.9414C82.9703 9.03984 81.8824 6.13408 79.693 3.94437C77.4988 1.75015 74.5858 0.663128 71.6782 0.680593C71.6644 0.680593 71.6508 0.679688 71.6364 0.679688C65.3226 0.679688 60.3145 5.68662 60.3145 12.0022C60.3145 18.2555 65.3843 23.3238 71.6364 23.3238C77.952 23.3238 82.9595 18.316 82.9595 12.0022C82.9595 11.9814 82.958 11.9619 82.958 11.9414Z" fill="#F26E21"/>
<g id="Group">
<path id="Vector_2" d="M58.21 16.791C56.5178 18.4851 54.9559 19.1469 53.2736 19.1827C49.1751 19.146 46.1618 16.1108 46.1618 11.7835C46.1618 9.60519 46.9866 7.81988 48.2931 6.29473C49.5184 5.13153 51.0968 4.37995 52.9119 4.37995C54.8713 4.37995 56.3961 5.03306 58.1369 6.77501V1.76717C56.3964 0.89665 54.871 0.460938 52.9119 0.460938C50.1441 0.65877 47.5343 1.77711 45.5325 3.53321C44.9556 4.05233 44.4027 4.62535 43.9339 5.28118C42.4717 7.1764 41.5879 9.49709 41.5879 12.0021C41.5879 18.3155 46.5975 23.1057 52.9116 23.1057C52.9423 23.1057 52.9727 23.103 53.0026 23.1027C53.045 23.1033 53.0869 23.1057 53.129 23.1057C54.8707 23.1057 56.3961 22.6712 58.3555 21.8L58.21 16.791C58.1366 16.8645 58.2829 16.9328 58.21 17.0024V16.791Z" fill="black"/>
<path id="Vector_3" d="M97.2543 3.57851L92.3232 15.702L86.6617 1.33008H82.0898L91.0167 23.322H93.4118L102.775 1.33008H98.2028L97.2543 3.57851Z" fill="black"/>
<path id="Vector_4" d="M104.518 10.911V22.6698H116.276H116.493V19.1847H112.792H108.872V15.2663V13.3072H116.276V9.60441H108.872V5.03228H116.493V1.33008H104.518V10.911Z" fill="black"/>
<path id="Vector_5" d="M6.09788 1.33008H0V22.6698H6.09757C9.36316 22.6698 11.7579 21.7981 13.7176 20.2738C16.1124 18.3142 17.6372 15.2666 17.6372 12.001C17.6375 5.6848 13.0642 1.33008 6.09788 1.33008ZM11.1054 17.4439C9.79888 18.5322 8.05693 19.1847 5.44386 19.1847H4.13732V5.03199H5.22585C7.83892 5.03199 9.58087 5.4674 10.8877 6.77333C12.4117 8.07897 13.2831 10.0398 13.2831 12.0001C13.5008 13.9597 12.63 16.1362 11.1054 17.4439Z" fill="black"/>
<path id="Vector_6" d="M23.7347 1.32812H19.5977V22.6672H23.7347V1.32812Z" fill="black"/>
<path id="Vector_7" d="M34.185 9.60607C31.5725 8.73524 30.9185 8.08152 30.9185 6.9933C30.9185 5.68676 32.225 4.59823 33.9669 4.59823C35.2735 4.59823 36.362 5.03394 37.4508 6.34048L39.6288 3.51C37.8863 1.98516 35.7098 1.11523 33.3144 1.11523C29.6119 1.11523 26.5634 3.72831 26.5634 7.211C26.5634 10.2601 27.8712 11.5663 31.7899 13.0906C33.5318 13.7428 34.1853 13.9614 34.6216 14.3968C35.4909 14.8316 35.9272 15.7033 35.9272 16.5733C35.9272 18.3155 34.6216 19.6223 32.6607 19.6223C30.6993 19.6223 28.9588 18.5338 28.0877 16.7916L25.4746 19.4046C27.4352 22.2351 29.8302 23.5414 32.8787 23.5414C37.2331 23.5414 40.2801 20.7109 40.2801 16.5733C40.2807 12.8726 38.9754 11.3483 34.185 9.60607Z" fill="black"/>
<path id="Vector_8" d="M128.25 13.7411C131.515 13.0889 133.258 10.9106 133.258 7.64536C133.258 3.72665 130.427 1.33008 125.637 1.33008H119.322V22.6698H123.459V14.1768H124.113L129.991 22.6698H135L128.25 13.7411ZM124.765 11.1281H123.46V4.59657H124.765C127.378 4.59657 128.903 5.6848 128.903 7.86367C128.903 10.0401 127.379 11.1281 124.765 11.1281Z" fill="black"/>
</g>
</g>
</svg>
