<svg width="33" height="33" viewBox="0 0 33 33" fill="none" xmlns="http://www.w3.org/2000/svg">
    <path
        d="M16.5608 0.669922C7.69079 0.669922 0.550781 7.80993 0.550781 16.6799C0.550781 25.5499 7.69079 32.6899 16.5608 32.6899C25.4308 32.6899 32.5708 25.5499 32.5708 16.6799C32.5708 7.80993 25.4308 0.669922 16.5608 0.669922ZM13.5608 27.7599C13.5608 27.8899 13.5608 27.96 13.4908 28.03C13.4208 28.3 13.1609 28.4299 12.8909 28.2999C9.15087 27.0999 6.29081 24.2299 5.08081 20.4899C3.08081 14.1499 6.55087 7.40991 12.8909 5.40991C12.9609 5.33991 13.0908 5.33997 13.1608 5.33997C13.4308 5.40997 13.5608 5.60993 13.5608 5.86993V6.79993C13.5608 7.12993 13.4308 7.32991 13.1608 7.46991C10.4208 8.46991 8.22083 10.6099 7.22083 13.4099C5.29083 18.5499 7.95077 24.3499 13.1608 26.2199C13.3608 26.3499 13.5608 26.6199 13.5608 26.8199V27.7599ZM17.6309 24.3499C17.5609 24.6799 17.3608 24.8799 17.1008 24.8799H16.1008C15.7708 24.8099 15.5708 24.6099 15.5708 24.3499V22.7499C13.3708 22.4199 12.3008 21.2199 12.0308 19.5499V19.4799C12.0308 19.2099 12.2309 19.0099 12.5009 19.0099H13.6309C13.8309 19.0099 14.0308 19.1399 14.1008 19.4099C14.3008 20.4099 14.9009 21.14 16.6409 21.14C17.9109 21.14 18.8408 20.41 18.8408 19.34C18.8408 18.27 18.2409 17.8699 16.3708 17.5399C13.5708 17.2099 12.2308 16.34 12.2308 14.14C12.2308 12.47 13.5009 11.1399 15.5009 10.8699V9.33997C15.5709 9.00997 15.7708 8.80994 16.0308 8.80994H17.0308C17.3608 8.87994 17.5608 9.07997 17.5608 9.33997V10.9399C19.0908 11.0699 20.3008 12.2099 20.5608 13.6799V13.7499C20.5608 14.0199 20.3608 14.2199 20.0908 14.2199H19.0209C18.8209 14.2199 18.6208 14.09 18.5508 13.89C18.2208 12.89 17.5508 12.4899 16.3508 12.4899C15.0208 12.4899 14.3508 13.09 14.3508 14.02C14.3508 14.95 14.7509 15.4899 16.7509 15.7499C19.5509 16.0799 20.9508 16.8799 20.9508 19.2199C20.9508 21.0199 19.6208 22.4199 17.6108 22.7599V24.3499H17.6309ZM20.2308 28.3599C20.1608 28.4299 20.0308 28.4299 19.9608 28.4299C19.6908 28.3599 19.5608 28.16 19.5608 27.9V26.9699C19.5608 26.6399 19.6908 26.4399 19.9608 26.2999C22.7008 25.2999 24.9008 23.1599 25.9008 20.3599C27.8308 15.2199 25.1708 9.41993 19.9608 7.54993C19.7608 7.41993 19.5608 7.14994 19.5608 6.87994V5.94995C19.5608 5.81995 19.5609 5.74993 19.6309 5.67993C19.7009 5.40993 19.9608 5.27991 20.2308 5.40991C23.9008 6.60991 26.8308 9.47997 28.0408 13.28C30.0408 19.62 26.5708 26.3499 20.2308 28.3599Z"
        fill="#2775CA" />
    <path
        d="M20.9611 19.2199C20.9611 16.8899 19.5611 16.0799 16.7611 15.7499C14.7611 15.4799 14.3611 14.95 14.3611 14.02C14.3611 13.09 15.0311 12.4899 16.3611 12.4899C17.5611 12.4899 18.231 12.89 18.561 13.89C18.631 14.09 18.831 14.2199 19.031 14.2199H20.1011C20.3711 14.2199 20.571 14.0199 20.571 13.7499V13.6799C20.301 12.2099 19.101 11.0799 17.571 10.9399V9.33997C17.571 9.06997 17.371 8.86994 17.041 8.80994H16.041C15.771 8.80994 15.5711 9.00997 15.5111 9.33997V10.8699C13.5111 11.1399 12.2411 12.47 12.2411 14.14C12.2411 16.34 13.5711 17.2099 16.3811 17.5399C18.2511 17.8699 18.8511 18.27 18.8511 19.34C18.8511 20.41 17.921 21.14 16.651 21.14C14.921 21.14 14.3211 20.4099 14.1111 19.4099C14.0411 19.1399 13.8411 19.0099 13.6411 19.0099H12.5111C12.2411 19.0099 12.041 19.2099 12.041 19.4799V19.5499C12.311 21.2199 13.3711 22.4199 15.5811 22.7499V24.3499C15.5811 24.6199 15.7811 24.8199 16.1111 24.8799H17.1111C17.3811 24.8799 17.5811 24.6799 17.6411 24.3499V22.7499C19.6311 22.4199 20.9611 21.0199 20.9611 19.2199Z"
        fill="white" />
    <path
        d="M28.0308 13.28C26.8308 9.47999 23.8908 6.60994 20.2208 5.40994C19.9508 5.27994 19.6908 5.40996 19.6208 5.67996C19.5508 5.74996 19.5508 5.80998 19.5508 5.94998V6.87997C19.5508 7.14997 19.7508 7.40995 19.9508 7.54995C25.1508 9.41995 27.8209 15.2199 25.8909 20.3599C24.8909 23.1599 22.6908 25.3 19.9508 26.3C19.6808 26.43 19.5508 26.6299 19.5508 26.9699V27.9C19.5508 28.17 19.6808 28.37 19.9508 28.43C20.0208 28.43 20.1508 28.4299 20.2208 28.3599C26.5708 26.3499 30.0408 19.62 28.0308 13.28Z"
        fill="white" />
    <path
        d="M13.161 26.2199C7.96104 24.3499 5.2911 18.5499 7.2211 13.4099C8.2211 10.6099 10.421 8.46991 13.161 7.46991C13.431 7.33991 13.5611 7.13993 13.5611 6.79993V5.86993C13.5611 5.59993 13.431 5.39997 13.161 5.33997C13.091 5.33997 12.9611 5.33991 12.8911 5.40991C6.55115 7.40991 3.08109 14.1499 5.08109 20.4899C6.28109 24.2299 9.15115 27.0899 12.8911 28.2999C13.1611 28.4299 13.4211 28.3 13.4911 28.03C13.5611 27.96 13.5611 27.8999 13.5611 27.7599V26.83C13.5611 26.62 13.361 26.3499 13.161 26.2199Z"
        fill="white" />
</svg>
    