<svg width="33" height="33" viewBox="0 0 33 33" fill="none" xmlns="http://www.w3.org/2000/svg">
    <path
        d="M16.0491 32.4702C24.8912 32.4702 32.0591 25.3023 32.0591 16.4602C32.0591 7.61813 24.8912 0.450195 16.0491 0.450195C7.20699 0.450195 0.0390625 7.61813 0.0390625 16.4602C0.0390625 25.3023 7.20699 32.4702 16.0491 32.4702Z"
        fill="#627EEA" />
    <path d="M16.5488 4.4502V13.3302L24.0488 16.6802L16.5488 4.4502Z" fill="white"
        fill-opacity="0.602" />
    <path d="M16.5488 4.4502L9.04883 16.6802L16.5488 13.3302V4.4502Z" fill="white" />
    <path d="M16.5488 22.4302V28.4602L24.0588 18.0702L16.5488 22.4302Z" fill="white"
        fill-opacity="0.602" />
    <path d="M16.5488 28.4602V22.4302L9.04883 18.0802L16.5488 28.4602Z" fill="white" />
    <path d="M16.5488 21.0402L24.0488 16.6802L16.5488 13.3302V21.0402Z" fill="white"
        fill-opacity="0.2" />
    <path d="M9.03906 16.6802L16.5391 21.0402V13.3302L9.03906 16.6802Z" fill="white"
        fill-opacity="0.602" />
</svg>
    