<svg width="33" height="33" viewBox="0 0 33 33" fill="none" xmlns="http://www.w3.org/2000/svg">
<path d="M32.4844 16.4281C32.4844 25.2518 25.3311 32.4062 16.5074 32.4062C7.68254 32.4062 0.529297 25.253 0.529297 16.4281C0.529297 7.60445 7.68254 0.451172 16.5074 0.451172C25.3311 0.451172 32.4844 7.60445 32.4844 16.4281Z" fill="#BEBEBE"/>
<path d="M29.0921 16.4281C29.0921 23.3786 23.458 29.0138 16.5076 29.0138C9.55711 29.0138 3.92188 23.3786 3.92188 16.4281C3.92188 9.47764 9.55711 3.84241 16.5076 3.84241C23.458 3.84241 29.0921 9.47764 29.0921 16.4281Z" fill="#BEBEBE"/>
<path d="M15.5738 20.6965L16.6118 16.7893L19.0681 15.8917L19.679 13.5948L19.6586 13.5385L17.2405 14.4217L18.983 7.86005H14.0413L11.7625 16.4233L9.8593 17.1181L9.23047 19.4857L11.1313 18.7909L9.78852 23.8369H22.9406L23.7842 20.6965H15.5738Z" fill="white"/>
</svg>

