<svg xmlns="http://www.w3.org/2000/svg" width="33" height="33" viewBox="0 0 33 33" fill="none">
  <path d="M16.5608 0.669922C7.69079 0.669922 0.550781 7.80993 0.550781 16.6799C0.550781 25.5499 7.69079 32.6899 16.5608 32.6899C25.4308 32.6899 32.5708 25.5499 32.5708 16.6799C32.5708 7.80993 25.4308 0.669922 16.5608 0.669922ZM13.5608 27.7599C13.5608 27.8899 13.5608 27.96 13.4908 28.03C13.4208 28.3 13.1609 28.4299 12.8909 28.2999C9.15087 27.0999 6.29081 24.2299 5.08081 20.4899C3.08081 14.1499 6.55087 7.40991 12.8909 5.40991C12.9609 5.33991 13.0908 5.33997 13.1608 5.33997C13.4308 5.40997 13.5608 5.60993 13.5608 5.86993V6.79993C13.5608 7.12993 13.4308 7.32991 13.1608 7.46991C10.4208 8.46991 8.22083 10.6099 7.22083 13.4099C5.29083 18.5499 7.95077 24.3499 13.1608 26.2199C13.3608 26.3499 13.5608 26.6199 13.5608 26.8199V27.7599ZM17.6309 24.3499C17.5609 24.6799 17.3608 24.8799 17.1008 24.8799H16.1008C15.7708 24.8099 15.5708 24.6099 15.5708 24.3499V22.7499C13.3708 22.4199 12.3008 21.2199 12.0308 19.5499V19.4799C12.0308 19.2099 12.2309 19.0099 12.5009 19.0099H13.6309C13.8309 19.0099 14.0308 19.1399 14.1008 19.4099C14.3008 20.4099 14.9009 21.14 16.6409 21.14C17.9109 21.14 18.8408 20.41 18.8408 19.34C18.8408 18.27 18.2409 17.8699 16.3708 17.5399C13.5708 17.2099 12.2308 16.34 12.2308 14.14C12.2308 12.47 13.5009 11.1399 15.5009 10.8699V9.33997C15.5709 9.00997 15.7708 8.80994 16.0308 8.80994H17.0308C17.3608 8.87994 17.5608 9.07997 17.5608 9.33997V10.9399C19.0908 11.0699 20.3008 12.2099 20.5608 13.6799V13.7499C20.5608 14.0199 20.3608 14.2199 20.0908 14.2199H19.0209C18.8209 14.2199 18.6208 14.09 18.5508 13.89C18.2208 12.89 17.5508 12.4899 16.3508 12.4899C15.0208 12.4899 14.3508 13.09 14.3508 14.02C14.3508 14.95 14.7509 15.4899 16.7509 15.7499C19.5509 16.0799 20.9508 16.8799 20.9508 19.2199C20.9508 21.0199 19.6208 22.4199 17.6108 22.7599V24.3499H17.6309ZM20.2308 28.3599C20.1608 28.4299 20.0308 28.4299 19.9608 28.4299C19.6908 28.3599 19.5608 28.16 19.5608 27.9V26.9699C19.5608 26.6399 19.6908 26.4399 19.9608 26.2999C22.7008 25.2999 24.9008 23.1599 25.9008 20.3599C27.8308 15.2199 25.1708 9.41993 19.9608 7.54993C19.7608 7.41993 19.5608 7.14994 19.5608 6.87994V5.94995C19.5608 5.81995 19.5609 5.74993 19.6309 5.67993C19.7009 5.40993 19.9608 5.27991 20.2308 5.40991C23.9008 6.60991 26.8308 9.47997 28.0408 13.28C30.0408 19.62 26.5708 26.3499 20.2308 28.3599Z" fill="#2775CA"/>
  <path d="M20.9608 19.2195C20.9608 16.8895 19.5609 16.0796 16.7609 15.7496C14.7609 15.4796 14.3608 14.9496 14.3608 14.0196C14.3608 13.0896 15.0308 12.4896 16.3608 12.4896C17.5608 12.4896 18.2308 12.8896 18.5608 13.8896C18.6308 14.0896 18.8308 14.2195 19.0308 14.2195H20.1008C20.3708 14.2195 20.5708 14.0196 20.5708 13.7496V13.6796C20.3008 12.2096 19.1008 11.0796 17.5708 10.9396V9.3396C17.5708 9.0696 17.3708 8.86957 17.0408 8.80957H16.0408C15.7708 8.80957 15.5709 9.0096 15.5109 9.3396V10.8696C13.5109 11.1396 12.2408 12.4696 12.2408 14.1396C12.2408 16.3396 13.5709 17.2096 16.3809 17.5396C18.2509 17.8696 18.8508 18.2696 18.8508 19.3396C18.8508 20.4096 17.9208 21.1396 16.6508 21.1396C14.9208 21.1396 14.3208 20.4095 14.1108 19.4095C14.0408 19.1395 13.8409 19.0096 13.6409 19.0096H12.5109C12.2409 19.0096 12.0408 19.2096 12.0408 19.4796V19.5496C12.3108 21.2196 13.3708 22.4196 15.5808 22.7496V24.3495C15.5808 24.6195 15.7808 24.8196 16.1108 24.8796H17.1108C17.3808 24.8796 17.5809 24.6795 17.6409 24.3495V22.7496C19.6309 22.4196 20.9608 21.0195 20.9608 19.2195Z" fill="white"/>
  <path d="M28.0308 13.2802C26.8308 9.48024 23.8908 6.61018 20.2208 5.41018C19.9508 5.28018 19.6908 5.4102 19.6208 5.6802C19.5508 5.7502 19.5508 5.81022 19.5508 5.95022V6.88021C19.5508 7.15021 19.7508 7.4102 19.9508 7.5502C25.1508 9.4202 27.8209 15.2202 25.8909 20.3602C24.8909 23.1602 22.6908 25.3002 19.9508 26.3002C19.6808 26.4302 19.5508 26.6302 19.5508 26.9702V27.9002C19.5508 28.1702 19.6808 28.3702 19.9508 28.4302C20.0208 28.4302 20.1508 28.4302 20.2208 28.3602C26.5708 26.3502 30.0408 19.6202 28.0308 13.2802Z" fill="white"/>
  <path d="M13.1608 26.2198C7.9608 24.3498 5.29086 18.5498 7.22086 13.4098C8.22086 10.6098 10.4208 8.46979 13.1608 7.46979C13.4308 7.33979 13.5608 7.1398 13.5608 6.7998V5.86981C13.5608 5.59981 13.4308 5.39984 13.1608 5.33984C13.0908 5.33984 12.9609 5.33979 12.8909 5.40979C6.5509 7.40979 3.08084 14.1498 5.08084 20.4898C6.28084 24.2298 9.1509 27.0898 12.8909 28.2998C13.1609 28.4298 13.4209 28.2998 13.4909 28.0298C13.5609 27.9598 13.5608 27.8998 13.5608 27.7598V26.8298C13.5608 26.6198 13.3608 26.3498 13.1608 26.2198Z" fill="white"/>
</svg>