<svg xmlns="http://www.w3.org/2000/svg" width="33" height="33" viewBox="0 0 33 33" fill="none">
  <g clip-path="url(#clip0_3655_21297)">
    <path d="M16.7661 0.00976562C25.6105 0.00976562 32.7811 7.18032 32.7811 16.0248C32.7811 24.8692 25.6102 32.0398 16.7661 32.0398C7.92197 32.0398 0.751099 24.8711 0.751099 16.0248C0.751099 7.1784 7.92069 0.00976562 16.7661 0.00976562Z" fill="#53AE94"/>
    <path d="M18.7426 13.8913V11.5089H24.1906V7.87891H9.35561V11.5089H14.8042V13.8893C10.3761 14.0927 7.04657 14.9697 7.04657 16.0203C7.04657 17.0709 10.3777 17.9479 14.8042 18.1525V25.7837H18.7439V18.1519C23.1641 17.9479 26.4869 17.0715 26.4869 16.0219C26.4869 14.9723 23.1641 14.0959 18.7439 13.8919M18.7439 17.5055V17.5036C18.6328 17.5106 18.0617 17.5449 16.7901 17.5449C15.7735 17.5449 15.0582 17.5161 14.8062 17.503V17.5062C10.894 17.3329 7.97384 16.6516 7.97384 15.8364C7.97384 15.0213 10.8943 14.341 14.8062 14.1674V16.8274C15.0624 16.8451 15.7952 16.8883 16.8067 16.8883C18.0216 16.8883 18.6325 16.8377 18.7446 16.8274V14.1674C22.649 14.3413 25.5625 15.0232 25.5625 15.8355C25.5625 16.6478 22.6477 17.33 18.7446 17.5039" fill="white"/>
  </g>
  <defs>
    <clipPath id="clip0_3655_21297">
      <rect width="32.03" height="32.03" fill="white" transform="translate(0.751099 0.00976562)"/>
    </clipPath>
  </defs>
</svg>