<svg width="87" height="28" viewBox="0 0 87 28" fill="none" xmlns="http://www.w3.org/2000/svg">
<g id="Frame 56">
<g id="Group">
<path id="Vector" d="M37.7818 27.5333H30.7644L35.1502 0.483344H42.1683L37.7818 27.5333ZM24.8609 0.483344L18.1708 19.0885L17.3792 15.0821L17.3799 15.0835L15.0186 2.91888C15.0186 2.91888 14.7331 0.483344 11.6898 0.483344H0.629779L0.5 0.941364C0.5 0.941364 3.88218 1.64757 7.84043 4.03318L13.9371 27.534H21.2487L32.4133 0.483344H24.8609ZM80.0565 27.5333H86.5L80.882 0.482621H75.241C72.636 0.482621 72.0016 2.49849 72.0016 2.49849L61.5356 27.5333H68.8508L70.3137 23.5153H79.2346L80.0565 27.5333ZM72.3347 17.9648L76.0218 7.84205L78.0961 17.9648H72.3347ZM62.0843 6.98824L63.0858 1.17942C63.0858 1.17942 59.9956 0 56.7742 0C53.2918 0 45.022 1.52746 45.022 8.95491C45.022 15.9431 54.728 16.03 54.728 19.7006C54.728 23.3713 46.022 22.7136 43.1489 20.3989L42.1056 26.4725C42.1056 26.4725 45.239 28 50.0264 28C54.8153 28 62.0396 25.5116 62.0396 18.739C62.0396 11.7059 52.2464 11.0511 52.2464 7.99328C52.2471 4.93475 59.0814 5.32765 62.0843 6.98824Z" fill="#2566AF"/>
</g>
<path id="Vector_2" d="M17.3799 15.0826L15.0186 2.91796C15.0186 2.91796 14.7331 0.482422 11.6898 0.482422H0.629779L0.5 0.940441C0.5 0.940441 5.81588 2.04606 10.9147 6.1885C15.7901 10.1479 17.3799 15.0826 17.3799 15.0826Z" fill="#E6A540"/>
</g>
</svg>
