<svg width="22" height="22" viewBox="0 0 22 22" fill="none" xmlns="http://www.w3.org/2000/svg">
<path d="M11 0C12.4445 0 13.8749 0.284523 15.2095 0.837325C16.5441 1.39013 17.7567 2.20038 18.7782 3.22183C19.7996 4.24327 20.6099 5.4559 21.1627 6.79048C21.7155 8.12506 22 9.55546 22 11C22 13.9174 20.8411 16.7153 18.7782 18.7782C16.7153 20.8411 13.9174 22 11 22C9.55546 22 8.12506 21.7155 6.79048 21.1627C5.4559 20.6099 4.24327 19.7996 3.22183 18.7782C1.15893 16.7153 0 13.9174 0 11C0 8.08262 1.15893 5.28473 3.22183 3.22183C5.28473 1.15893 8.08262 0 11 0ZM5.5 8.8L11 14.3L16.5 8.8H5.5Z" fill="currentColor"/>
</svg>
