<svg width="26" height="24" viewBox="0 0 26 24" fill="none" xmlns="http://www.w3.org/2000/svg">
<rect width="26" height="24" fill="#FF0000"/>
<path d="M18.5842 16.1234C18.9951 16.5342 18.9951 17.1734 18.5842 17.5842C18.3788 17.7897 18.1277 17.881 17.8538 17.881C17.5799 17.881 17.3288 17.7897 17.1234 17.5842L12.9462 13.4071L8.76902 17.5842C8.56359 17.7897 8.3125 17.881 8.03859 17.881C7.76467 17.881 7.51359 17.7897 7.30815 17.5842C6.89728 17.1734 6.89728 16.5342 7.30815 16.1234L11.4853 11.9462L7.30815 7.76902C6.89728 7.35815 6.89728 6.71902 7.30815 6.30815C7.71902 5.89728 8.35815 5.89728 8.76902 6.30815L12.9462 10.4853L17.1234 6.30815C17.5342 5.89728 18.1734 5.89728 18.5842 6.30815C18.9951 6.71902 18.9951 7.35815 18.5842 7.76902L14.4071 11.9462L18.5842 16.1234Z" fill="white"/>
</svg>
