<svg xmlns="http://www.w3.org/2000/svg" width="47" height="43" viewBox="0 0 47 43" fill="none">
  <rect width="46" height="43" transform="translate(0.5)" fill="none"/>
  <path d="M25.9552 26.454C25.9552 25.7654 25.7659 25.2181 25.3905 24.8153C25.0209 24.4018 24.3927 24.0248 23.5013 23.6798C22.7148 23.3815 21.9445 23.04 21.1937 22.6567C20.5901 22.342 20.029 21.9474 19.5248 21.4832C19.0686 21.0398 18.7019 20.5082 18.4457 19.9189C18.1914 19.3215 18.0643 18.6116 18.0643 17.7862C18.0643 16.3648 18.5063 15.1989 19.3903 14.2898C20.2728 13.3823 21.4465 12.8533 22.9115 12.7013V11.0094C22.9115 10.7417 23.0149 10.4849 23.1989 10.2956C23.383 10.1063 23.6327 10 23.893 10C24.1533 10 24.403 10.1063 24.5871 10.2956C24.7712 10.4849 24.8746 10.7417 24.8746 11.0094V12.7378C26.3232 12.9476 27.4556 13.5708 28.2745 14.6045C28.8244 15.2962 29.1896 16.1247 29.3684 17.093C29.5222 17.9184 28.8392 18.6055 28.0232 18.6055H27.4319C26.6159 18.6055 26.0128 17.9002 25.7467 17.1067C25.6591 16.8295 25.5217 16.5717 25.3417 16.3466C24.9396 15.8419 24.4 15.5896 23.7215 15.5896C23.0504 15.5896 22.5315 15.7872 22.1635 16.1824C21.7939 16.5701 21.6106 17.1082 21.6106 17.7968C21.6106 18.4368 21.7909 18.9506 22.1502 19.3367C22.5108 19.7243 23.1775 20.1196 24.1502 20.5224C25.1333 20.9268 25.9389 21.3099 26.5686 21.6716C27.1984 22.0243 27.7291 22.4287 28.1637 22.8832C28.5968 23.3286 28.9279 23.8409 29.157 24.4216C29.3862 24.9947 29.5 25.6635 29.5 26.4282C29.5 27.8586 29.0669 29.02 28.1991 29.9108C27.3329 30.8031 26.1385 31.3291 24.6174 31.4887V32.9967C24.6174 33.2628 24.5146 33.518 24.3316 33.7061C24.1486 33.8943 23.9005 34 23.6417 34C23.383 34 23.1348 33.8943 22.9518 33.7061C22.7689 33.518 22.6661 33.2628 22.6661 32.9967V31.5009C20.9897 31.3154 19.6889 30.7059 18.7635 29.6722C18.1338 28.9531 17.7199 28.073 17.5218 27.0317C17.368 26.2078 18.051 25.5191 18.867 25.5191H19.4583C20.2743 25.5191 20.8803 26.226 21.1627 27.0149C21.2736 27.3281 21.4288 27.6002 21.6224 27.8297C22.0895 28.3588 22.7562 28.6233 23.6225 28.6233C24.3424 28.6233 24.9115 28.4302 25.3284 28.0441C25.7453 27.6488 25.9552 27.1183 25.9552 26.454Z" fill="white"/>
</svg>
