<svg
      width="121"
      height="115"
      viewBox="0 0 121 115"
      fill="none"
      xmlns="http://www.w3.org/2000/svg"
    >
      <path
        d="M23.3608 26.12H18.2607C15.8007 26.12 13.8008 24.12 13.8008 21.66V4.45999C13.8008 1.99999 15.8007 0 18.2607 0H23.3608C25.8208 0 27.8207 1.99999 27.8207 4.45999V21.66C27.8207 24.12 25.8208 26.12 23.3608 26.12ZM18.2607 3.82001C17.9107 3.82001 17.6207 4.10999 17.6207 4.45999V21.66C17.6207 22.01 17.9107 22.3 18.2607 22.3H23.3608C23.7108 22.3 24.0007 22.01 24.0007 21.66V4.45999C24.0007 4.10999 23.7108 3.82001 23.3608 3.82001H18.2607Z"
        fill="white"
      />
      <path
        d="M62.6498 26.12H57.5499C55.0899 26.12 53.0898 24.12 53.0898 21.66V4.45999C53.0898 1.99999 55.0899 0 57.5499 0H62.6498C65.1098 0 67.1099 1.99999 67.1099 4.45999V21.66C67.1099 24.12 65.1098 26.12 62.6498 26.12ZM57.5499 3.82001C57.1999 3.82001 56.9099 4.10999 56.9099 4.45999V21.66C56.9099 22.01 57.1999 22.3 57.5499 22.3H62.6498C62.9998 22.3 63.2899 22.01 63.2899 21.66V4.45999C63.2899 4.10999 62.9998 3.82001 62.6498 3.82001H57.5499Z"
        fill="white"
      />
      <path
        d="M101.951 26.12H96.8506C94.3906 26.12 92.3906 24.12 92.3906 21.66V4.45999C92.3906 1.99999 94.3906 0 96.8506 0H101.951C104.411 0 106.411 1.99999 106.411 4.45999V21.66C106.411 24.12 104.411 26.12 101.951 26.12ZM96.8506 3.82001C96.5006 3.82001 96.2106 4.10999 96.2106 4.45999V21.66C96.2106 22.01 96.5006 22.3 96.8506 22.3H101.951C102.301 22.3 102.591 22.01 102.591 21.66V4.45999C102.591 4.10999 102.301 3.82001 101.951 3.82001H96.8506Z"
        fill="white"
      />
      <path
        d="M110.439 40.9899H9.76935C8.70935 40.9899 7.85938 40.13 7.85938 39.08C7.85938 38.03 8.71935 37.1699 9.76935 37.1699H110.439C111.499 37.1699 112.349 38.03 112.349 39.08C112.349 40.13 111.499 40.9899 110.439 40.9899Z"
        fill="white"
      />
      <path
        d="M114.48 114.21H5.73004C2.57004 114.21 0 111.64 0 108.48V18.3599C0 15.1999 2.57004 12.6299 5.73004 12.6299H15.71C16.77 12.6299 17.62 13.4899 17.62 14.5399V21.6699C17.62 22.0199 17.91 22.3099 18.26 22.3099H23.36C23.71 22.3099 24 22.0199 24 21.6699V14.5399C24 13.4799 24.86 12.6299 25.91 12.6299H55.01C56.07 12.6299 56.92 13.4899 56.92 14.5399V21.6699C56.92 22.0199 57.21 22.3099 57.56 22.3099H62.66C63.01 22.3099 63.3 22.0199 63.3 21.6699V14.5399C63.3 13.4799 64.16 12.6299 65.21 12.6299H94.31C95.37 12.6299 96.22 13.4899 96.22 14.5399V21.6699C96.22 22.0199 96.51 22.3099 96.86 22.3099H101.96C102.31 22.3099 102.6 22.0199 102.6 21.6699V14.5399C102.6 13.4799 103.46 12.6299 104.51 12.6299H114.49C117.65 12.6299 120.22 15.1999 120.22 18.3599V108.48C120.21 111.64 117.64 114.21 114.48 114.21ZM5.73004 16.4399C4.68004 16.4399 3.82001 17.2999 3.82001 18.3499V108.47C3.82001 109.52 4.68004 110.38 5.73004 110.38H114.47C115.52 110.38 116.38 109.52 116.38 108.47V18.3499C116.38 17.2999 115.52 16.4399 114.47 16.4399H106.4V21.6599C106.4 24.1199 104.4 26.1199 101.94 26.1199H96.84C94.38 26.1199 92.3801 24.1199 92.3801 21.6599V16.4399H67.1V21.6599C67.1 24.1199 65.1 26.1199 62.64 26.1199H57.54C55.08 26.1199 53.08 24.1199 53.08 21.6599V16.4399H27.8V21.6599C27.8 24.1199 25.8 26.1199 23.34 26.1199H18.2401C15.7801 26.1199 13.78 24.1199 13.78 21.6599V16.4399H5.73004Z"
        fill="white"
      />
      <path
        d="M34.28 67.1L38.52 81.08H34.72L33.74 77.84H26.22L25.24 81.08H21.44L25.68 67.1H34.28ZM31.42 70.16H28.54L27.22 74.6H32.74L31.42 70.16ZM56.6483 70.08C56.7483 70.62 56.7883 71.72 56.7883 72.4C56.7883 73.06 56.7483 74.1 56.6683 74.7C56.3083 77 55.1283 77.96 52.0283 77.96H44.2883V81H40.5683V67.02H52.0283C54.8083 67.02 56.2083 67.86 56.6483 70.08ZM52.9483 73.46V71.34C52.9483 70.64 52.3883 70.08 51.6883 70.08H44.2883V74.72H51.6883C52.3883 74.72 52.9483 74.16 52.9483 73.46ZM75.5359 74.7C75.3159 76.14 74.7559 77.06 73.6159 77.54L75.6559 81.02H71.4359L69.6559 77.96H63.1559V81H59.4359V67.02H70.8959C73.6759 67.02 75.0759 67.86 75.5159 70.08C75.6159 70.62 75.6559 71.72 75.6559 72.4C75.6559 73.06 75.6359 74.1 75.5359 74.7ZM63.1559 70.08V74.72H70.5559C71.2559 74.72 71.8159 74.14 71.8159 73.46V71.34C71.8159 70.64 71.2559 70.08 70.5559 70.08H63.1559ZM82.2184 81.02H78.4984V67.02H82.2184V81.02ZM89.132 77.96H99.292V81H85.412V67.02H89.132V77.96Z"
        fill="#F7971E"
      />
    </svg>