<svg width="40" height="36" viewBox="0 0 40 36" fill="none" xmlns="http://www.w3.org/2000/svg">
<path d="M18.6352 28.159C19.0372 28.6041 19.6259 28.8625 20.229 28.8625C20.832 28.8625 21.4207 28.6041 21.8228 28.159L31.3856 17.5623C31.96 16.9305 32.1036 16.0259 31.759 15.2506C31.4144 14.4752 30.639 13.9726 29.7919 13.9726H25.2689V2.38524C25.2689 1.19347 24.3068 0.231445 23.1151 0.231445H17.3141C16.1224 0.231445 15.1603 1.19347 15.1603 2.38524V13.9726H10.6375C9.79036 13.9726 9.015 14.4752 8.67039 15.2506C8.32579 16.0259 8.46939 16.9305 9.04373 17.5623L18.6352 28.159Z" fill="#092236"/>
<path d="M37.8893 31.5469H2.58155C1.4185 31.5469 0.470703 32.4946 0.470703 33.6576C0.470703 34.8207 1.4185 35.7683 2.58155 35.7683H37.8893C39.0524 35.7683 40 34.8207 40 33.6576C40 32.4946 39.0524 31.5469 37.8893 31.5469Z" fill="#092236"/>
</svg>
