<svg width="41" height="52" viewBox="0 0 41 52" fill="none" xmlns="http://www.w3.org/2000/svg">
<path d="M3.65985 41.9945C5.35537 41.9945 6.72986 40.62 6.72986 38.9245C6.72986 37.229 5.35537 35.8545 3.65985 35.8545C1.96434 35.8545 0.589844 37.229 0.589844 38.9245C0.589844 40.62 1.96434 41.9945 3.65985 41.9945Z" fill="#F6911E"/>
<path d="M3.66 42.5749C1.64 42.5749 0 40.9349 0 38.9149C0 36.8949 1.64 35.2549 3.66 35.2549C5.68 35.2549 7.32001 36.8949 7.32001 38.9149C7.32001 40.9349 5.68 42.5749 3.66 42.5749ZM3.66 36.4349C2.29 36.4349 1.17999 37.5449 1.17999 38.9149C1.17999 40.2849 2.29 41.3949 3.66 41.3949C5.03 41.3949 6.13998 40.2849 6.13998 38.9149C6.13998 37.5549 5.03 36.4349 3.66 36.4349Z" fill="#231F20"/>
<path d="M26.1901 0.924805H11.2501C7.17012 0.924805 3.87012 4.22481 3.87012 8.30481V43.7148C3.87012 47.7948 7.17012 51.0948 11.2501 51.0948H32.5601C36.6401 51.0948 39.9401 47.7948 39.9401 43.7148V14.6748L26.1901 0.924805Z" fill="white"/>
<path d="M32.5603 51.6752H11.2503C6.86027 51.6752 3.28027 48.1052 3.28027 43.7052V8.29517C3.28027 3.90517 6.85027 0.325195 11.2503 0.325195H26.1903C26.3503 0.325195 26.4903 0.385178 26.6003 0.495178L40.3503 14.2452C40.4603 14.3552 40.5203 14.5052 40.5203 14.6552V43.6952C40.5303 48.1052 36.9503 51.6752 32.5603 51.6752ZM11.2503 1.50519C7.50027 1.50519 4.46027 4.55517 4.46027 8.29517V43.7052C4.46027 47.4552 7.51027 50.4952 11.2503 50.4952H32.5603C36.3103 50.4952 39.3503 47.4452 39.3503 43.7052V14.9152L25.9403 1.50519H11.2503Z" fill="#231F20"/>
<path d="M26.1895 0.924805L39.9395 14.6748H29.1194C27.4994 14.6748 26.1895 13.3648 26.1895 11.7448V0.924805Z" fill="#DBDCDD"/>
<path d="M39.9396 15.2551H29.1196C27.1796 15.2551 25.5996 13.6751 25.5996 11.7351V0.915112C25.5996 0.675112 25.7396 0.465134 25.9596 0.375134C26.1796 0.285134 26.4296 0.335139 26.5996 0.505139L40.3296 14.2351C40.4496 14.3451 40.5296 14.5051 40.5296 14.6751C40.5296 14.9951 40.2696 15.2551 39.9396 15.2551ZM26.7796 2.33516V11.7351C26.7796 13.0251 27.8296 14.0852 29.1296 14.0852H38.5296L26.7796 2.33516Z" fill="#231F20"/>
<path d="M3.93967 21.2246C2.11967 21.2246 0.639648 22.7047 0.639648 24.5247V38.3447H0.699677C0.989677 36.8247 2.32967 35.6746 3.93967 35.6746H37.1797V21.2246H3.93967Z" fill="#F6911E"/>
<path d="M0.699829 38.9348H0.639801C0.319801 38.9348 0.0498047 38.6748 0.0498047 38.3448V24.5248C0.0498047 22.3848 1.78982 20.6348 3.93982 20.6348H37.1798C37.4998 20.6348 37.7698 20.8947 37.7698 21.2247V35.6747C37.7698 35.9947 37.5098 36.2648 37.1798 36.2648H3.93982C2.63982 36.2648 1.51981 37.1848 1.26981 38.4648C1.21981 38.7348 0.979829 38.9348 0.699829 38.9348ZM3.93982 21.8047C2.43982 21.8047 1.21982 23.0248 1.21982 24.5248V36.1948C1.92982 35.5048 2.88982 35.0848 3.93982 35.0848H36.5998V21.8047H3.93982Z" fill="#231F20"/>
</svg>
