<svg width="20" height="20" viewBox="0 0 20 20" fill="none" xmlns="http://www.w3.org/2000/svg">
<path d="M0 17.1795C0.000814446 17.9273 0.298236 18.6442 0.827009 19.173C1.35578 19.7018 2.07272 19.9992 2.82051 20H17.1795C17.9273 19.9992 18.6442 19.7018 19.173 19.173C19.7018 18.6442 19.9992 17.9273 20 17.1795V2.82051C19.9992 2.07272 19.7018 1.35578 19.173 0.827009C18.6442 0.298236 17.9273 0.000814446 17.1795 0H2.82051C2.07272 0.000814446 1.35578 0.298236 0.827009 0.827009C0.298236 1.35578 0.000814446 2.07272 0 2.82051V17.1795ZM18.4615 17.1795C18.4613 17.5194 18.3261 17.8454 18.0857 18.0857C17.8454 18.3261 17.5194 18.4613 17.1795 18.4615H10.7692V7.69231H18.4615V17.1795ZM1.53846 2.82051C1.53873 2.48058 1.67389 2.15464 1.91427 1.91427C2.15464 1.67389 2.48058 1.53873 2.82051 1.53846H17.1795C17.5194 1.53873 17.8454 1.67389 18.0857 1.91427C18.3261 2.15464 18.4613 2.48058 18.4615 2.82051V6.15385H1.53846V2.82051ZM1.53846 7.69231H9.23077V18.4615H2.82051C2.48058 18.4613 2.15464 18.3261 1.91427 18.0857C1.67389 17.8454 1.53873 17.5194 1.53846 17.1795V7.69231Z" fill="white"/>
</svg>
