<svg width="21" height="22" viewBox="0 0 21 22" fill="none" xmlns="http://www.w3.org/2000/svg">
<path d="M16.0065 13.0157C15.4157 13.0196 14.833 13.1544 14.3005 13.4103C13.768 13.6662 13.2987 14.0369 12.9265 14.4957L7.8265 12.1457C8.06629 11.4115 8.06629 10.62 7.8265 9.88574L12.9265 7.53574C13.5281 8.26171 14.3668 8.75182 15.2946 8.91958C16.2225 9.08734 17.1797 8.92197 17.9974 8.45264C18.8152 7.98332 19.4409 7.24022 19.764 6.35448C20.0872 5.46875 20.0871 4.49732 19.7638 3.61165C19.4405 2.72597 18.8146 1.98298 17.9968 1.51381C17.179 1.04463 16.2217 0.879433 15.2939 1.04736C14.3662 1.21529 13.5275 1.70556 12.926 2.43163C12.3245 3.15771 11.9989 4.07292 12.0065 5.01574C12.0095 5.25397 12.0329 5.49151 12.0765 5.72574L6.7965 8.15574C6.23358 7.60532 5.52074 7.23326 4.7473 7.08617C3.97386 6.93908 3.17422 7.02351 2.44855 7.32887C1.72288 7.63424 1.10346 8.14696 0.667898 8.8028C0.232336 9.45864 0 10.2284 0 11.0157C0 11.803 0.232336 12.5728 0.667898 13.2287C1.10346 13.8845 1.72288 14.3972 2.44855 14.7026C3.17422 15.008 3.97386 15.0924 4.7473 14.9453C5.52074 14.7982 6.23358 14.4262 6.7965 13.8757L12.0765 16.3057C12.0329 16.54 12.0095 16.7775 12.0065 17.0157C12.0065 17.8069 12.2411 18.5802 12.6806 19.238C13.1201 19.8958 13.7449 20.4085 14.4758 20.7113C15.2067 21.014 16.0109 21.0932 16.7869 20.9389C17.5628 20.7845 18.2755 20.4036 18.8349 19.8442C19.3943 19.2848 19.7753 18.572 19.9296 17.7961C20.084 17.0202 20.0048 16.2159 19.702 15.485C19.3993 14.7541 18.8866 14.1294 18.2288 13.6899C17.571 13.2503 16.7976 13.0157 16.0065 13.0157ZM16.0065 3.01574C16.4021 3.01574 16.7887 3.13304 17.1176 3.3528C17.4465 3.57256 17.7029 3.88492 17.8543 4.25037C18.0056 4.61582 18.0452 5.01796 17.9681 5.40592C17.8909 5.79388 17.7004 6.15025 17.4207 6.42995C17.141 6.70966 16.7846 6.90014 16.3967 6.97731C16.0087 7.05448 15.6066 7.01487 15.2411 6.8635C14.8757 6.71212 14.5633 6.45578 14.3436 6.12688C14.1238 5.79798 14.0065 5.4113 14.0065 5.01574C14.0065 4.48531 14.2172 3.9766 14.5923 3.60153C14.9674 3.22645 15.4761 3.01574 16.0065 3.01574ZM4.0065 13.0157C3.61094 13.0157 3.22426 12.8984 2.89536 12.6787C2.56646 12.4589 2.31011 12.1466 2.15874 11.7811C2.00736 11.4157 1.96776 11.0135 2.04493 10.6256C2.1221 10.2376 2.31258 9.88123 2.59228 9.60153C2.87199 9.32182 3.22836 9.13134 3.61632 9.05417C4.00428 8.977 4.40641 9.01661 4.77186 9.16798C5.13732 9.31936 5.44967 9.5757 5.66944 9.9046C5.8892 10.2335 6.0065 10.6202 6.0065 11.0157C6.0065 11.5462 5.79578 12.0549 5.42071 12.43C5.04564 12.805 4.53693 13.0157 4.0065 13.0157ZM16.0065 19.0157C15.6109 19.0157 15.2243 18.8984 14.8954 18.6787C14.5665 18.4589 14.3101 18.1466 14.1587 17.7811C14.0074 17.4157 13.9678 17.0135 14.0449 16.6256C14.1221 16.2376 14.3126 15.8812 14.5923 15.6015C14.872 15.3218 15.2284 15.1313 15.6163 15.0542C16.0043 14.977 16.4064 15.0166 16.7719 15.168C17.1373 15.3194 17.4497 15.5757 17.6694 15.9046C17.8892 16.2335 18.0065 16.6202 18.0065 17.0157C18.0065 17.5462 17.7958 18.0549 17.4207 18.43C17.0456 18.805 16.5369 19.0157 16.0065 19.0157Z" fill="white"/>
</svg>
