<svg width="27" height="18" viewBox="0 0 27 18" fill="none" xmlns="http://www.w3.org/2000/svg">
<path d="M6.13636 7.78571C5.89363 7.78571 5.65635 7.85693 5.45453 7.99036C5.2527 8.12379 5.0954 8.31343 5.00251 8.53531C4.90962 8.75719 4.88532 9.00135 4.93267 9.2369C4.98003 9.47244 5.09691 9.68881 5.26855 9.85863C5.44019 10.0285 5.65887 10.1441 5.89693 10.191C6.135 10.2378 6.38177 10.2138 6.60602 10.1219C6.83028 10.0299 7.02195 9.87431 7.1568 9.67462C7.29166 9.47493 7.36364 9.24016 7.36364 9C7.36364 8.67795 7.23433 8.36909 7.00418 8.14137C6.77402 7.91365 6.46186 7.78571 6.13636 7.78571ZM20.8636 7.78571C20.6209 7.78571 20.3836 7.85693 20.1818 7.99036C19.98 8.12379 19.8227 8.31343 19.7298 8.53531C19.6369 8.75719 19.6126 9.00135 19.6599 9.2369C19.7073 9.47244 19.8242 9.68881 19.9958 9.85863C20.1675 10.0285 20.3861 10.1441 20.6242 10.191C20.8623 10.2378 21.109 10.2138 21.3333 10.1219C21.5575 10.0299 21.7492 9.87431 21.8841 9.67462C22.0189 9.47493 22.0909 9.24016 22.0909 9C22.0909 8.67795 21.9616 8.36909 21.7315 8.14137C21.5013 7.91365 21.1891 7.78571 20.8636 7.78571ZM23.3182 0.5H3.68182C2.70534 0.5 1.76885 0.8838 1.07838 1.56697C0.387905 2.25014 0 3.17671 0 4.14286V13.8571C0 14.8233 0.387905 15.7499 1.07838 16.433C1.76885 17.1162 2.70534 17.5 3.68182 17.5H23.3182C24.2947 17.5 25.2311 17.1162 25.9216 16.433C26.6121 15.7499 27 14.8233 27 13.8571V4.14286C27 3.17671 26.6121 2.25014 25.9216 1.56697C25.2311 0.8838 24.2947 0.5 23.3182 0.5ZM24.5455 13.8571C24.5455 14.1792 24.4162 14.4881 24.186 14.7158C23.9558 14.9435 23.6437 15.0714 23.3182 15.0714H3.68182C3.35633 15.0714 3.04416 14.9435 2.81401 14.7158C2.58385 14.4881 2.45455 14.1792 2.45455 13.8571V4.14286C2.45455 3.82081 2.58385 3.51195 2.81401 3.28423C3.04416 3.0565 3.35633 2.92857 3.68182 2.92857H23.3182C23.6437 2.92857 23.9558 3.0565 24.186 3.28423C24.4162 3.51195 24.5455 3.82081 24.5455 4.14286V13.8571ZM13.5 5.35714C12.7718 5.35714 12.06 5.57079 11.4545 5.97108C10.849 6.37136 10.3771 6.94029 10.0984 7.60594C9.81978 8.27158 9.74686 9.00404 9.88893 9.71069C10.031 10.4173 10.3816 11.0664 10.8966 11.5759C11.4115 12.0854 12.0675 12.4323 12.7817 12.5729C13.4959 12.7134 14.2362 12.6413 14.909 12.3656C15.5817 12.0898 16.1568 11.6229 16.5613 11.0239C16.9659 10.4248 17.1818 9.72049 17.1818 9C17.1818 8.03385 16.7939 7.10728 16.1034 6.42411C15.413 5.74094 14.4765 5.35714 13.5 5.35714ZM13.5 10.2143C13.2573 10.2143 13.02 10.1431 12.8182 10.0096C12.6163 9.87621 12.459 9.68657 12.3661 9.46469C12.2733 9.24281 12.249 8.99865 12.2963 8.7631C12.3437 8.52756 12.4606 8.31119 12.6322 8.14137C12.8038 7.97155 13.0225 7.8559 13.2606 7.80905C13.4986 7.76219 13.7454 7.78624 13.9697 7.87815C14.1939 7.97005 14.3856 8.12569 14.5204 8.32538C14.6553 8.52507 14.7273 8.75984 14.7273 9C14.7273 9.32205 14.598 9.63091 14.3678 9.85863C14.1377 10.0864 13.8255 10.2143 13.5 10.2143Z" fill="black"/>
</svg>
