<svg width="52" height="51" viewBox="0 0 52 51" fill="none" xmlns="http://www.w3.org/2000/svg">
<ellipse cx="26" cy="25.5" rx="26" ry="25.5" fill="#F7971E"/>
<path d="M13.8949 14.0001C13.8655 13.9997 13.8361 14.0009 13.8068 14.0035C13.6465 14.0176 13.4931 14.0751 13.3631 14.1699C13.2331 14.2648 13.1314 14.3933 13.0691 14.5416C13.0067 14.69 12.986 14.8525 13.0092 15.0117C13.0325 15.171 13.0987 15.3208 13.2008 15.4452L16.6298 19.7306L19.142 28.9523L16.6384 33.9526C16.571 34.0874 16.5392 34.2371 16.546 34.3877C16.5528 34.5382 16.598 34.6845 16.6772 34.8127C16.7564 34.9409 16.8671 35.0467 16.9987 35.1201C17.1303 35.1934 17.2785 35.232 17.4292 35.232H20.2505C20.6198 36.2541 21.5933 37 22.735 37C23.8768 37 24.852 36.2541 25.223 35.232H29.9746C30.344 36.2541 31.3157 37 32.4575 37C33.5993 37 34.5762 36.2543 34.9472 35.232H36.8827C37.1174 35.232 37.3425 35.1387 37.5084 34.9728C37.6744 34.8068 37.7676 34.5818 37.7676 34.3471C37.7676 34.1124 37.6744 33.8873 37.5084 33.7214C37.3425 33.5554 37.1174 33.4622 36.8827 33.4622H34.9489C34.5798 32.4382 33.6018 31.6942 32.4575 31.6942C31.3131 31.6942 30.3385 32.4381 29.9712 33.4622H25.2265C24.8574 32.4381 23.8794 31.6942 22.735 31.6942C21.5906 31.6942 20.6143 32.4381 20.247 33.4622H18.864L20.6286 29.9261H34.2255C34.4199 29.9265 34.609 29.8627 34.7635 29.7447C34.918 29.6267 35.0293 29.4611 35.0802 29.2735L36.0419 25.7599C38.102 24.7539 39.5313 22.6417 39.5313 20.202C39.5313 16.7948 36.7521 14.0087 33.3449 14.0087C30.5519 14.0087 28.185 15.8822 27.421 18.4339H17.8522L14.5838 14.3419C14.5021 14.2367 14.3977 14.1513 14.2784 14.0922C14.1592 14.033 14.028 14.0015 13.8949 14.0001ZM33.3449 15.7784C35.7966 15.7784 37.7633 17.7504 37.7633 20.202C37.7633 22.0393 36.6586 23.6045 35.0733 24.2733C35.0429 24.2809 35.0129 24.2901 34.9835 24.3009C34.9373 24.3192 34.8871 24.329 34.8402 24.3458C34.6212 24.425 34.3998 24.4968 34.172 24.5409C34.1714 24.541 34.1708 24.5408 34.1703 24.5409C33.8989 24.5933 33.6227 24.6202 33.3449 24.6203C30.8933 24.6203 28.9266 22.6536 28.9266 20.202C28.928 19.955 28.9496 19.7149 28.9922 19.4716C28.9935 19.463 28.9946 19.4544 28.9957 19.4457C29.3517 17.3577 31.1517 15.7784 33.3449 15.7784ZM33.3311 16.6521C33.0967 16.6549 32.8729 16.7506 32.7091 16.9184C32.5452 17.0861 32.4547 17.312 32.4575 17.5465V19.3145H30.6894C30.4584 19.3196 30.2385 19.415 30.0769 19.5802C29.9153 19.7455 29.8248 19.9674 29.8248 20.1985C29.8248 20.4296 29.9153 20.6516 30.0769 20.8168C30.2385 20.982 30.4584 21.0774 30.6894 21.0825H32.4575V22.8523C32.4626 23.0834 32.558 23.3032 32.7232 23.4648C32.8884 23.6264 33.1104 23.7169 33.3415 23.7169C33.5726 23.7169 33.7945 23.6264 33.9598 23.4648C34.125 23.3032 34.2204 23.0834 34.2255 22.8523V21.0825H35.9953C36.2263 21.0774 36.4462 20.982 36.6078 20.8168C36.7694 20.6516 36.8599 20.4296 36.8599 20.1985C36.8599 19.9674 36.7694 19.7455 36.6078 19.5802C36.4462 19.415 36.2263 19.3196 35.9953 19.3145H34.2255V17.5465C34.2269 17.4286 34.2047 17.3117 34.1602 17.2026C34.1158 17.0935 34.0499 16.9943 33.9666 16.911C33.8833 16.8277 33.7841 16.7618 33.675 16.7174C33.5659 16.6729 33.449 16.6507 33.3311 16.6521ZM18.5912 20.202H27.1586C27.1586 23.6091 29.9378 26.3884 33.3449 26.3884C33.5836 26.3884 33.8176 26.3717 34.0494 26.3452L33.5539 28.1581H20.7564L18.5912 20.202ZM22.735 33.4622C23.1767 33.4622 23.5159 33.7689 23.5914 34.1839C23.5711 34.2905 23.5705 34.4 23.5897 34.5068C23.5127 34.921 23.1753 35.232 22.735 35.232C22.2363 35.232 21.8527 34.8415 21.8527 34.3428C21.8527 33.8441 22.2363 33.4622 22.735 33.4622ZM32.4575 33.4622C32.8898 33.4622 33.2233 33.7566 33.3087 34.158C33.2825 34.2804 33.2825 34.4069 33.3087 34.5292C33.2233 34.932 32.8899 35.232 32.4575 35.232C31.9588 35.232 31.5769 34.8415 31.5769 34.3428C31.5769 33.8441 31.9588 33.4622 32.4575 33.4622Z" fill="white"/>
</svg>
