<svg xmlns="http://www.w3.org/2000/svg" width="15" height="20" viewBox="0 0 15 20" fill="none">
  <path d="M14.0498 7.0355C14.0515 5.91601 13.7856 4.81233 13.2743 3.81642C12.763 2.82051 12.0211 1.96123 11.1104 1.31017C10.1997 0.659104 9.14656 0.235122 8.03879 0.0735503C6.93102 -0.0880214 5.80067 0.0174967 4.74195 0.381312C3.68322 0.745126 2.72677 1.3567 1.95231 2.16507C1.17784 2.97345 0.607783 3.95521 0.289641 5.02854C-0.0285021 6.10188 -0.0855179 7.23571 0.123344 8.33554C0.332206 9.43538 0.800897 10.4694 1.49036 11.3514V19.2146C1.49058 19.3445 1.52338 19.4722 1.58576 19.5862C1.64815 19.7001 1.73811 19.7965 1.84743 19.8666C1.96059 19.9432 2.09195 19.9886 2.22824 19.9981C2.36454 20.0076 2.50094 19.981 2.62366 19.921L7.02491 17.8873L11.4572 19.921C11.56 19.9663 11.6709 19.9901 11.7832 19.9908C11.932 19.9905 12.0774 19.9474 12.2024 19.8666C12.3117 19.7965 12.4017 19.7001 12.4641 19.5862C12.5264 19.4722 12.5592 19.3445 12.5595 19.2146V11.3514C13.5256 10.1203 14.0504 8.60044 14.0498 7.0355ZM7.06372 1.60187C8.14769 1.59418 9.20952 1.90859 10.1145 2.50521C11.0196 3.10184 11.727 3.95381 12.1472 4.95307C12.5673 5.95232 12.6813 7.05385 12.4745 8.11795C12.2678 9.18204 11.7496 10.1608 10.9859 10.93C10.2221 11.6992 9.2471 12.2243 8.18451 12.4386C7.12191 12.6529 6.0196 12.5468 5.01738 12.1338C4.01516 11.7208 3.15817 11.0194 2.55512 10.1186C1.95207 9.21788 1.63011 8.15831 1.63008 7.07432C1.61969 5.62957 2.18105 4.23934 3.19169 3.20688C4.20234 2.17442 5.58027 1.58351 7.02491 1.56306L7.06372 1.60187ZM7.38974 16.3503C7.28756 16.303 7.17631 16.2785 7.06372 16.2785C6.95113 16.2785 6.83988 16.303 6.7377 16.3503L3.08164 18.027V12.8184C4.25108 13.6297 5.64042 14.0645 7.06372 14.0645C8.48701 14.0645 9.87636 13.6297 11.0458 12.8184V18.0037L7.38974 16.3503ZM4.19942 10.0007C4.18864 10.134 4.21248 10.2678 4.26861 10.3891C4.32475 10.5105 4.41127 10.6153 4.51981 10.6934C4.62835 10.7715 4.75521 10.8202 4.88811 10.8348C5.02102 10.8495 5.15545 10.8295 5.27838 10.777L7.02491 10.0007L8.77143 10.777C8.87015 10.8168 8.97546 10.8379 9.08193 10.839C9.2437 10.838 9.40111 10.7864 9.53214 10.6916C9.64241 10.612 9.72985 10.5049 9.7857 10.3809C9.84155 10.257 9.86386 10.1205 9.8504 9.98519L9.67186 8.09894L10.9061 6.6862C10.9958 6.58515 11.0576 6.46242 11.0854 6.33016C11.1131 6.19789 11.1058 6.06068 11.0643 5.93208C11.0227 5.80349 10.9483 5.68797 10.8484 5.59696C10.7485 5.50595 10.6266 5.4426 10.4947 5.41318L8.63947 4.99401L7.66918 3.36392C7.60045 3.24809 7.50276 3.15213 7.38572 3.08548C7.26868 3.01884 7.13631 2.98379 7.00162 2.98379C6.86693 2.98379 6.73456 3.01884 6.61752 3.08548C6.50048 3.15213 6.40279 3.24809 6.33406 3.36392L5.36377 4.99401L3.50857 5.41318C3.38048 5.44862 3.26363 5.51636 3.16922 5.60991C3.07482 5.70346 3.00601 5.81968 2.96939 5.94744C2.93278 6.07521 2.92958 6.21023 2.96011 6.33959C2.99064 6.46894 3.05387 6.58829 3.14374 6.6862L4.40124 8.11447L4.19942 10.0007ZM6.05462 6.4378C6.15795 6.41414 6.25533 6.36956 6.34077 6.30681C6.42621 6.24407 6.4979 6.16448 6.5514 6.07297L7.02491 5.29674L7.49841 6.07297C7.55192 6.16448 7.6236 6.24407 7.70904 6.30681C7.79448 6.36956 7.89187 6.41414 7.9952 6.4378L8.90339 6.63962L8.29017 7.33823C8.21995 7.41699 8.16653 7.50923 8.13317 7.60933C8.0998 7.70943 8.08719 7.81528 8.09611 7.92041L8.1815 8.84413L7.3354 8.44825C7.23747 8.40551 7.13176 8.38345 7.02491 8.38345C6.91805 8.38345 6.81235 8.40551 6.71441 8.44825L5.86832 8.81308L5.9537 7.88936C5.96262 7.78423 5.95001 7.67838 5.91665 7.57828C5.88328 7.47819 5.82986 7.38594 5.75965 7.30719L5.14642 6.60858L6.05462 6.4378Z" fill="white"/>
</svg>