<svg width="11" height="11" viewBox="0 0 11 11" fill="none" xmlns="http://www.w3.org/2000/svg">
<path d="M9.34643 0.00211389C8.91063 0.00081368 8.49215 0.172805 8.18306 0.480214L7.54944 1.09964H1.52692C1.1228 1.10237 0.735999 1.26416 0.450233 1.55009C0.164467 1.83601 0.00272147 2.22303 0 2.62738V9.4722C0.00272147 9.87655 0.164467 10.2636 0.450233 10.5495C0.735999 10.8354 1.1228 10.9973 1.52692 11H8.36796C8.77208 10.9973 9.15888 10.8354 9.44465 10.5495C9.73041 10.2636 9.89216 9.87655 9.89488 9.4722V3.44637L10.514 2.81445C10.7457 2.58419 10.9038 2.29013 10.9679 1.9697C11.0321 1.64928 10.9995 1.31698 10.8743 1.01515C10.7491 0.713322 10.5369 0.455658 10.2648 0.274879C9.99275 0.0941001 9.67305 -0.00161332 9.34643 2.05748e-05V0.00211389ZM9.34851 1.08924C9.4877 1.08924 9.62689 1.14534 9.73907 1.2555C9.79154 1.30593 9.83329 1.36646 9.8618 1.43343C9.89032 1.5004 9.90502 1.57244 9.90502 1.64524C9.90502 1.71803 9.89032 1.79007 9.8618 1.85704C9.83329 1.92402 9.79154 1.98454 9.73907 2.03497L9.73492 2.03916L5.26841 6.5996H4.39796V5.73075L8.95588 1.26178L8.96003 1.25759C9.01065 1.20564 9.07102 1.16421 9.13769 1.13567C9.20436 1.10714 9.276 1.09209 9.34851 1.09133V1.08924ZM1.52692 2.1992H6.4297L3.46103 5.10923C3.35769 5.2122 3.29941 5.35202 3.29899 5.49795V7.1504C3.29899 7.45387 3.54412 7.69708 3.84743 7.69916H5.499C5.64442 7.69916 5.78569 7.64096 5.88749 7.53703L8.79591 4.56883V9.4722C8.79764 9.5289 8.78775 9.58535 8.76686 9.63808C8.74596 9.69081 8.7145 9.73873 8.67441 9.77884C8.63432 9.81895 8.58645 9.85042 8.53375 9.87132C8.48105 9.89223 8.42463 9.9021 8.36796 9.90038H1.52692C1.47026 9.9021 1.41383 9.89223 1.36113 9.87132C1.30843 9.85042 1.26056 9.81895 1.22047 9.77884C1.18038 9.73873 1.14892 9.69081 1.12803 9.63808C1.10713 9.58535 1.09724 9.5289 1.09897 9.4722V2.62738C1.09753 2.57086 1.10763 2.51462 1.12866 2.46214C1.14968 2.40965 1.18119 2.36203 1.22124 2.32214C1.2613 2.28225 1.30907 2.25094 1.36163 2.23016C1.41419 2.20938 1.47044 2.19958 1.52692 2.2013V2.1992Z" fill="#AFAFAF"/>
</svg>
