<svg xmlns="http://www.w3.org/2000/svg" width="11" height="8" viewBox="0 0 11 8" fill="none">
  <path d="M10.7579 0.767679C10.6028 0.596284 10.3925 0.5 10.1732 0.5C9.95392 0.5 9.74361 0.596284 9.58853 0.767679L5.49501 5.2932L1.40148 0.767679C1.24551 0.601142 1.03662 0.50899 0.819788 0.511073C0.602958 0.513157 0.395542 0.609307 0.242214 0.778816C0.0888863 0.948325 0.00191593 1.17763 3.14713e-05 1.41734C-0.00185299 1.65705 0.081502 1.888 0.232141 2.06042L4.91034 7.23232C5.06542 7.40372 5.27572 7.5 5.49501 7.5C5.71429 7.5 5.9246 7.40372 6.07968 7.23232L10.7579 2.06042C10.9129 1.88898 11 1.65648 11 1.41405C11 1.17163 10.9129 0.939126 10.7579 0.767679Z" fill="#F7971E"/>
</svg>