<svg width="22" height="20" viewBox="0 0 22 20" fill="none" xmlns="http://www.w3.org/2000/svg">
<path d="M19.8417 8.09524C19.1274 8.83333 18.2465 9.28571 17.1989 9.45238C16.6751 12.6429 14.4132 14.2619 11.7941 14.5952V18.0952H13.8417C14.3655 18.0952 14.7941 18.5238 14.7941 19.0476C14.7941 19.5714 14.3655 20 13.8417 20H7.86555C7.34174 20 6.91316 19.5714 6.91316 19.0476C6.91316 18.5238 7.34174 18.0952 7.86555 18.0952H9.88935V14.5952C7.27031 14.2619 5.03221 12.6429 4.5084 9.45238C3.46078 9.28571 2.57983 8.85714 1.84174 8.09524C-0.110645 6.07143 -0.0154072 2.61905 0.00840232 2.47619C0.0322118 2.02381 0.389355 1.66667 0.841736 1.66667H4.41316V0.952381C4.41316 0.428571 4.81793 0 5.34174 0H16.3417C16.8655 0 17.2703 0.428571 17.2703 0.952381V1.66667H20.8417C21.2941 1.66667 21.6513 2.02381 21.6751 2.47619C21.6751 2.61905 21.7703 6.09524 19.8417 8.09524ZM3.05602 6.95238C3.43697 7.33333 3.93697 7.61905 4.41316 7.7381V3.33333H1.69888C1.79412 4.28571 2.07983 5.92857 3.05602 6.95238ZM15.3655 1.90476H6.31793V8.07143C6.31793 11.5238 8.65126 12.7381 10.8417 12.7381C13.0322 12.7381 15.3655 11.5 15.3655 8.07143V1.90476ZM18.6274 6.95238C19.556 6 19.8894 4.52381 19.9846 3.33333H17.2703V7.7381C17.7465 7.59524 18.2465 7.33333 18.6274 6.95238Z" fill="white"/>
</svg>
