<svg width="53" height="51" viewBox="0 0 53 51" fill="none" xmlns="http://www.w3.org/2000/svg">
<ellipse cx="26.5" cy="25.5" rx="26" ry="25.5" fill="#F7971E"/>
<path d="M37.0204 35.1808H15.6793V13.8396C15.6793 13.3848 15.2945 13 14.8396 13C14.3848 13 14 13.3848 14 13.8396V36.0204C14 36.4752 14.3848 36.8601 14.8396 36.8601H37.0204C37.4752 36.8601 37.8601 36.4752 37.8601 36.0204C37.8601 35.5656 37.4752 35.1808 37.0204 35.1808Z" fill="white"/>
<path d="M34.1313 24.027C33.4677 22.5175 32.3228 21.2654 30.8721 20.4625C29.4215 19.6597 27.7451 19.3505 26.1001 19.5823C24.4551 19.8141 22.9322 20.5742 21.7649 21.7459C20.5976 22.9177 19.8504 24.4365 19.6378 26.0695C18.6035 26.3149 17.6962 26.9282 17.0882 27.7928C16.4801 28.6575 16.2137 29.7133 16.3396 30.7598C16.4654 31.8063 16.9747 32.7706 17.7707 33.4695C18.5667 34.1684 19.594 34.5533 20.6576 34.551H32.5908C33.8919 34.5475 35.1484 34.0806 36.131 33.2356C37.1137 32.3905 37.7571 31.2236 37.9439 29.9477C38.1306 28.6718 37.8483 27.3718 37.1484 26.2849C36.4486 25.1981 35.3777 24.3967 34.1313 24.027ZM32.5908 32.4011H20.6576C20.0821 32.4011 19.5303 32.1746 19.1234 31.7714C18.7165 31.3682 18.4879 30.8213 18.4879 30.2511C18.4879 29.6809 18.7165 29.1341 19.1234 28.7309C19.5303 28.3277 20.0821 28.1012 20.6576 28.1012C20.9453 28.1012 21.2212 27.9879 21.4247 27.7863C21.6281 27.5847 21.7424 27.3113 21.7424 27.0262C21.7452 25.7548 22.2027 24.5255 23.0337 23.5568C23.8646 22.588 25.0153 21.9426 26.2811 21.735C27.547 21.5274 28.8461 21.7713 29.9477 22.4231C31.0492 23.075 31.882 24.0927 32.2979 25.2955C32.3615 25.4782 32.4737 25.6405 32.6226 25.7654C32.7715 25.8902 32.9517 25.973 33.1441 26.005C33.9392 26.1503 34.6513 26.5839 35.1416 27.221C35.6319 27.8582 35.8652 28.6534 35.7961 29.4518C35.7271 30.2501 35.3606 30.9944 34.768 31.5396C34.1755 32.0848 33.3993 32.3919 32.5908 32.4011Z" fill="white"/>
</svg>
