<svg width="83" height="84" viewBox="0 0 83 84" fill="none" xmlns="http://www.w3.org/2000/svg">
<path d="M55.9024 73.2473H26.9745C24.7774 73.2473 23.0686 74.9561 23.0686 77.1532C23.0686 79.3502 24.7774 81.0591 26.9745 81.0591H55.9024C58.0995 81.0591 59.8083 79.3502 59.8083 77.1532C59.9304 74.9561 58.0995 73.2473 55.9024 73.2473ZM77.6289 8.55611C77.3848 8.31199 77.1407 8.18994 76.7745 8.18994H64.9348V4.16199C64.9348 3.42964 64.4466 2.94141 63.7142 2.94141H19.1627C18.4304 2.94141 17.9421 3.42964 17.9421 4.16199V8.18994H6.22449C5.85832 8.18994 5.6142 8.31199 5.37008 8.55611C5.12597 8.80023 5.00391 9.16641 5.00391 9.41052C5.00391 25.4002 14.5245 39.3149 27.5848 42.6105C31.3686 46.1502 36.0068 48.7135 41.2554 49.812C41.3774 49.812 41.3774 49.812 41.4995 49.812C41.6216 49.812 41.6216 49.812 41.7436 49.812C46.9921 48.7135 51.7524 46.1502 55.5363 42.6105C68.5966 39.3149 77.9951 25.4002 78.1171 9.41052C77.9951 9.16641 77.873 8.80023 77.6289 8.55611ZM7.44508 10.6311H18.0642V21.0061C18.0642 27.5973 20.2613 33.8223 24.1671 38.8267C14.5245 34.3105 7.93332 23.3252 7.44508 10.6311ZM53.2171 22.2267L48.2127 27.1091L49.3113 33.7002C49.3113 33.8223 49.4333 33.9443 49.4333 34.1885C49.4333 35.1649 48.4568 35.6532 47.6024 35.287L41.4995 31.9914L35.2745 35.287C34.9083 35.5311 34.4201 35.4091 33.9318 35.1649C33.5657 34.9208 33.3216 34.4326 33.4436 33.9443L34.6642 27.1091L29.6598 22.2267C29.2936 21.8605 29.1716 21.3723 29.2936 21.0061C29.4157 20.5179 29.7818 20.2738 30.2701 20.1517L37.2274 19.1752L40.2789 12.9502C40.523 12.5841 40.8892 12.2179 41.3774 12.2179C41.8657 12.2179 42.2318 12.462 42.476 12.9502L45.5274 19.1752L52.4848 20.1517C52.973 20.2738 53.3392 20.5179 53.4613 21.0061C53.7054 21.3723 53.5833 21.8605 53.2171 22.2267ZM58.9539 38.8267C67.376 27.7193 64.3245 17.3443 65.0568 10.6311H75.5539C75.0657 23.3252 68.4745 34.3105 58.9539 38.8267Z" fill="#FFD700"/>
<path d="M43.8189 20.7613L41.4998 16.123L39.1807 20.7613C39.0586 21.1275 38.6924 21.3716 38.2042 21.3716L33.0777 22.1039L36.7395 25.6436C36.9836 25.8878 37.1057 26.376 37.1057 26.7422L36.2513 31.8686L40.7674 29.4275C41.1336 29.1833 41.4998 29.1833 41.866 29.4275L46.3821 31.8686L45.5277 26.7422C45.4057 26.376 45.6498 25.8878 45.8939 25.6436L49.5557 22.1039L44.4292 21.3716C44.3071 21.3716 43.941 21.1275 43.8189 20.7613ZM37.4719 51.398V56.0363H45.5277V51.398C41.6219 52.6186 41.1336 52.6186 37.4719 51.398ZM28.9277 63.726V70.8054H53.9498V63.726C53.9498 60.9186 51.6307 58.4775 48.7013 58.4775H34.1763C31.3689 58.4775 28.9277 60.7966 28.9277 63.726Z" fill="#FFD700"/>
</svg>
