<svg width="83" height="83" viewBox="0 0 83 83" fill="none" xmlns="http://www.w3.org/2000/svg">
<path d="M55.9024 72.7473H26.9745C24.7774 72.7473 23.0686 74.4561 23.0686 76.6532C23.0686 78.8502 24.7774 80.5591 26.9745 80.5591H55.9024C58.0995 80.5591 59.8083 78.8502 59.8083 76.6532C59.9304 74.4561 58.0995 72.7473 55.9024 72.7473ZM77.6289 8.05611C77.3848 7.81199 77.1407 7.68994 76.7745 7.68994H64.9348V3.66199C64.9348 2.92964 64.4466 2.44141 63.7142 2.44141H19.1627C18.4304 2.44141 17.9421 2.92964 17.9421 3.66199V7.68994H6.22449C5.85832 7.68994 5.6142 7.81199 5.37008 8.05611C5.12597 8.30023 5.00391 8.66641 5.00391 8.91052C5.00391 24.9002 14.5245 38.8149 27.5848 42.1105C31.3686 45.6502 36.0068 48.2135 41.2554 49.312C41.3774 49.312 41.3774 49.312 41.4995 49.312C41.6216 49.312 41.6216 49.312 41.7436 49.312C46.9921 48.2135 51.7524 45.6502 55.5363 42.1105C68.5966 38.8149 77.9951 24.9002 78.1171 8.91052C77.9951 8.66641 77.873 8.30023 77.6289 8.05611ZM7.44508 10.1311H18.0642V20.5061C18.0642 27.0973 20.2613 33.3223 24.1671 38.3267C14.5245 33.8105 7.93332 22.8252 7.44508 10.1311ZM53.2171 21.7267L48.2127 26.6091L49.3113 33.2002C49.3113 33.3223 49.4333 33.4443 49.4333 33.6885C49.4333 34.6649 48.4568 35.1532 47.6024 34.787L41.4995 31.4914L35.2745 34.787C34.9083 35.0311 34.4201 34.9091 33.9318 34.6649C33.5657 34.4208 33.3216 33.9326 33.4436 33.4443L34.6642 26.6091L29.6598 21.7267C29.2936 21.3605 29.1716 20.8723 29.2936 20.5061C29.4157 20.0179 29.7818 19.7738 30.2701 19.6517L37.2274 18.6752L40.2789 12.4502C40.523 12.0841 40.8892 11.7179 41.3774 11.7179C41.8657 11.7179 42.2318 11.962 42.476 12.4502L45.5274 18.6752L52.4848 19.6517C52.973 19.7738 53.3392 20.0179 53.4613 20.5061C53.7054 20.8723 53.5833 21.3605 53.2171 21.7267ZM58.9539 38.3267C67.376 27.2193 64.3245 16.8443 65.0568 10.1311H75.5539C75.0657 22.8252 68.4745 33.8105 58.9539 38.3267Z" fill="#999999"/>
<path d="M43.8189 20.2613L41.4998 15.623L39.1807 20.2613C39.0586 20.6275 38.6924 20.8716 38.2042 20.8716L33.0777 21.6039L36.7395 25.1436C36.9836 25.3878 37.1057 25.876 37.1057 26.2422L36.2513 31.3686L40.7674 28.9275C41.1336 28.6833 41.4998 28.6833 41.866 28.9275L46.3821 31.3686L45.5277 26.2422C45.4057 25.876 45.6498 25.3878 45.8939 25.1436L49.5557 21.6039L44.4292 20.8716C44.3071 20.8716 43.941 20.6275 43.8189 20.2613ZM37.4719 50.898V55.5363H45.5277V50.898C41.6219 52.1186 41.1336 52.1186 37.4719 50.898ZM28.9277 63.226V70.3054H53.9498V63.226C53.9498 60.4186 51.6307 57.9775 48.7013 57.9775H34.1763C31.3689 57.9775 28.9277 60.2966 28.9277 63.226Z" fill="#999999"/>
</svg>
