<svg width="36" height="25" viewBox="0 0 36 25" fill="none" xmlns="http://www.w3.org/2000/svg">
<path d="M12.6 8.92857C12.1226 8.92857 11.6648 9.11671 11.3272 9.4516C10.9896 9.78648 10.8 10.2407 10.8 10.7143V14.2857C10.8 14.7593 10.9896 15.2135 11.3272 15.5484C11.6648 15.8833 12.1226 16.0714 12.6 16.0714C13.0774 16.0714 13.5352 15.8833 13.8728 15.5484C14.2104 15.2135 14.4 14.7593 14.4 14.2857V10.7143C14.4 10.2407 14.2104 9.78648 13.8728 9.4516C13.5352 9.11671 13.0774 8.92857 12.6 8.92857ZM34.2 10.7143C34.6774 10.7143 35.1352 10.5261 35.4728 10.1913C35.8104 9.85638 36 9.40217 36 8.92857V1.78571C36 1.31211 35.8104 0.85791 35.4728 0.523024C35.1352 0.188138 34.6774 0 34.2 0H1.8C1.32261 0 0.864773 0.188138 0.527208 0.523024C0.189642 0.85791 0 1.31211 0 1.78571V8.92857C0 9.40217 0.189642 9.85638 0.527208 10.1913C0.864773 10.5261 1.32261 10.7143 1.8 10.7143C2.27739 10.7143 2.73523 10.9024 3.07279 11.2373C3.41036 11.5722 3.6 12.0264 3.6 12.5C3.6 12.9736 3.41036 13.4278 3.07279 13.7627C2.73523 14.0976 2.27739 14.2857 1.8 14.2857C1.32261 14.2857 0.864773 14.4739 0.527208 14.8087C0.189642 15.1436 0 15.5978 0 16.0714V23.2143C0 23.6879 0.189642 24.1421 0.527208 24.477C0.864773 24.8119 1.32261 25 1.8 25H34.2C34.6774 25 35.1352 24.8119 35.4728 24.477C35.8104 24.1421 36 23.6879 36 23.2143V16.0714C36 15.5978 35.8104 15.1436 35.4728 14.8087C35.1352 14.4739 34.6774 14.2857 34.2 14.2857C33.7226 14.2857 33.2648 14.0976 32.9272 13.7627C32.5896 13.4278 32.4 12.9736 32.4 12.5C32.4 12.0264 32.5896 11.5722 32.9272 11.2373C33.2648 10.9024 33.7226 10.7143 34.2 10.7143ZM32.4 7.46429C31.3575 7.83965 30.4568 8.52434 29.8203 9.42529C29.1838 10.3263 28.8423 11.3998 28.8423 12.5C28.8423 13.6002 29.1838 14.6737 29.8203 15.5747C30.4568 16.4757 31.3575 17.1603 32.4 17.5357V21.4286H14.4C14.4 20.955 14.2104 20.5008 13.8728 20.1659C13.5352 19.831 13.0774 19.6429 12.6 19.6429C12.1226 19.6429 11.6648 19.831 11.3272 20.1659C10.9896 20.5008 10.8 20.955 10.8 21.4286H3.6V17.5357C4.64247 17.1603 5.54317 16.4757 6.17969 15.5747C6.8162 14.6737 7.15766 13.6002 7.15766 12.5C7.15766 11.3998 6.8162 10.3263 6.17969 9.42529C5.54317 8.52434 4.64247 7.83965 3.6 7.46429V3.57143H10.8C10.8 4.04503 10.9896 4.49923 11.3272 4.83412C11.6648 5.16901 12.1226 5.35714 12.6 5.35714C13.0774 5.35714 13.5352 5.16901 13.8728 4.83412C14.2104 4.49923 14.4 4.04503 14.4 3.57143H32.4V7.46429Z" fill="#929292"/>
</svg>

