<svg width="19" height="23" viewBox="0 0 19 23" fill="none" xmlns="http://www.w3.org/2000/svg">
<path d="M16.4076 2.53906H15.2894V3.83756C15.2894 4.92526 14.3405 5.8117 13.1712 5.8117H5.5701C4.40581 5.8117 3.45704 4.92526 3.45704 3.83756V2.53906H2.5184C1.12847 2.53906 0 3.58839 0 4.8773V20.6608C0 21.9498 1.12847 22.9991 2.5184 22.9991H16.4076C17.8026 22.9991 18.9362 21.9498 18.9362 20.6608V4.8773C18.9362 3.58839 17.8026 2.53906 16.4076 2.53906ZM13.0122 7.60374C13.2122 7.79542 13.207 8.09729 13.0071 8.28417L10.0425 11.0441C9.93997 11.1351 9.81175 11.1831 9.67839 11.1831C9.55017 11.1831 9.41681 11.1351 9.31425 11.0441L7.85245 9.66888C7.65248 9.48207 7.65248 9.18019 7.85245 8.99331C8.05255 8.80164 8.38075 8.80644 8.58072 8.99331L9.68352 10.0283L12.2839 7.60374C12.4839 7.41686 12.8121 7.41686 13.0122 7.60374ZM5.77007 7.25876C5.77007 6.99046 6.00097 6.7796 6.28296 6.7796H10.6939C10.9812 6.7796 11.2068 6.99046 11.2068 7.25876C11.2068 7.52226 10.9812 7.73792 10.6939 7.73792H6.79586V12.1749H11.5453V10.6752C11.5453 10.4116 11.776 10.196 12.0582 10.196C12.3454 10.196 12.5711 10.4116 12.5711 10.6752V12.6541C12.5711 12.9176 12.3454 13.1332 12.0582 13.1332H6.28296C6.00097 13.1332 5.77007 12.9176 5.77007 12.6541V7.25876ZM5.41107 14.8678H13.52C13.8021 14.8678 14.0329 15.0786 14.0329 15.347C14.0329 15.6105 13.8021 15.8261 13.52 15.8261H5.41107C5.12895 15.8261 4.89817 15.6105 4.89817 15.347C4.89817 15.0786 5.12895 14.8678 5.41107 14.8678ZM15.351 19.8175H3.58C3.29801 19.8175 3.0671 19.6019 3.0671 19.3383C3.0671 19.0748 3.29801 18.8592 3.58 18.8592H15.351C15.6383 18.8592 15.8639 19.0748 15.8639 19.3383C15.8639 19.6019 15.6383 19.8175 15.351 19.8175ZM15.351 17.8194H3.58C3.29801 17.8194 3.0671 17.6086 3.0671 17.3402C3.0671 17.0767 3.29801 16.8611 3.58 16.8611H15.351C15.6383 16.8611 15.8639 17.0767 15.8639 17.3402C15.8639 17.6086 15.6383 17.8194 15.351 17.8194Z" fill="#010101"/>
<path d="M13.1708 1.41829H11.3603C11.1193 0.603745 10.314 0 9.3702 0C8.42655 0 7.61614 0.603745 7.37509 1.41829H5.56969C4.96965 1.41829 4.48242 1.87832 4.48242 2.43896V3.83806C4.48242 4.39864 4.96965 4.85388 5.56969 4.85388H13.1708C13.776 4.85388 14.2632 4.39865 14.2632 3.83806V2.43896C14.2632 1.87832 13.776 1.41829 13.1708 1.41829ZM9.37533 2.54436C8.95999 2.54436 8.63166 2.2329 8.63166 1.84955C8.63166 1.46625 8.95999 1.15479 9.37533 1.15479C9.78567 1.15479 10.114 1.46625 10.114 1.84955C10.114 2.23289 9.78567 2.54436 9.37533 2.54436Z" fill="#010101"/>
</svg>
