<svg width="146" height="138" viewBox="0 0 146 138" fill="none" xmlns="http://www.w3.org/2000/svg">
<path d="M75.3112 63.8667C64.836 61.1133 61.4674 58.29 61.4674 53.8567C61.4674 48.77 66.1051 45.2 73.9269 45.2C82.1409 45.2 85.1866 49.1667 85.4634 55H95.6618C95.3618 46.95 90.4934 39.6233 80.8488 37.22V27H67.0049V37.08C58.0525 39.0633 50.8537 44.8967 50.8537 53.9267C50.8537 64.7067 59.6907 70.0733 72.5425 73.2C84.1021 76 86.3864 80.0833 86.3864 84.47C86.3864 87.6667 84.1483 92.8 73.9269 92.8C64.4207 92.8 60.6598 88.4833 60.1753 83H50C50.5768 93.22 58.1217 98.9367 67.0049 100.873V111H80.8488V100.967C89.8243 99.2167 97 93.9667 97 84.3767C97 71.17 85.7865 66.6433 75.3112 63.8667Z" fill="white"/>
</svg>


