<svg width="147" height="138" viewBox="0 0 147 138" fill="none" xmlns="http://www.w3.org/2000/svg">
<path d="M75.6117 48.7625C82.8058 48.7625 85.4733 52.1979 85.7158 57.25H94.6479C94.365 50.2983 90.1213 43.9125 81.6742 41.8512V33H69.5492V41.73C67.9729 42.0533 66.5179 42.5787 65.1033 43.185L71.2062 49.2879C72.4996 48.9646 73.995 48.7625 75.6117 48.7625ZM47.1987 36.7183L41.5 42.4171L55.4033 56.3204C55.4033 64.7271 61.7083 69.3346 71.2062 72.1233L85.3925 86.3096C84.0183 88.29 81.1488 89.9875 75.6117 89.9875C67.2858 89.9875 64.0121 86.2692 63.5675 81.5H54.6758C55.1608 90.3512 61.7892 95.3225 69.5492 96.9796V105.75H81.6742V97.0604C85.5542 96.3329 89.0704 94.8375 91.6167 92.5337L100.589 101.506L106.288 95.8075L47.1987 36.7183Z" fill="white"/>
</svg>

