<svg xmlns="http://www.w3.org/2000/svg" width="92" height="83" viewBox="0 0 92 83" fill="none">
  <rect x="0.00390625" width="91" height="83" rx="15" fill="#F7971E"/>
  <path d="M47.16 38.2C40.4737 36.43 38.3235 34.615 38.3235 31.765C38.3235 28.495 41.2837 26.2 46.2764 26.2C51.5194 26.2 53.4634 28.75 53.6401 32.5H60.1497C59.9582 27.325 56.8507 22.615 50.6946 21.07V14.5H41.8581V20.98C36.1438 22.255 31.5488 26.005 31.5488 31.81C31.5488 38.74 37.1895 42.19 45.3927 44.2C52.7712 46 54.2292 48.625 54.2292 51.445C54.2292 53.5 52.8007 56.8 46.2764 56.8C40.2086 56.8 37.808 54.025 37.4988 50.5H31.0039C31.3721 57.07 36.188 60.745 41.8581 61.99V68.5H50.6946V62.05C56.4236 60.925 61.0039 57.55 61.0039 51.385C61.0039 42.895 53.8463 39.985 47.16 38.2Z" fill="white"/>
</svg>