<svg width="11" height="11" viewBox="0 0 11 11" fill="none" xmlns="http://www.w3.org/2000/svg">
<path d="M10.45 6.6C10.3041 6.6 10.1642 6.65795 10.0611 6.76109C9.95795 6.86424 9.9 7.00413 9.9 7.15V9.35C9.9 9.49587 9.84205 9.63576 9.73891 9.73891C9.63576 9.84205 9.49587 9.9 9.35 9.9H1.65C1.50413 9.9 1.36424 9.84205 1.26109 9.73891C1.15795 9.63576 1.1 9.49587 1.1 9.35V7.15C1.1 7.00413 1.04205 6.86424 0.938909 6.76109C0.835764 6.65795 0.695869 6.6 0.55 6.6C0.404131 6.6 0.264236 6.65795 0.161091 6.76109C0.0579462 6.86424 0 7.00413 0 7.15V9.35C0 9.78761 0.173839 10.2073 0.483274 10.5167C0.792709 10.8262 1.21239 11 1.65 11H9.35C9.78761 11 10.2073 10.8262 10.5167 10.5167C10.8262 10.2073 11 9.78761 11 9.35V7.15C11 7.00413 10.9421 6.86424 10.8389 6.76109C10.7358 6.65795 10.5959 6.6 10.45 6.6ZM5.1095 7.5405C5.16181 7.59057 5.22349 7.62982 5.291 7.656C5.35684 7.6851 5.42802 7.70013 5.5 7.70013C5.57198 7.70013 5.64317 7.6851 5.709 7.656C5.77651 7.62982 5.83819 7.59057 5.8905 7.5405L8.0905 5.3405C8.19407 5.23693 8.25225 5.09647 8.25225 4.95C8.25225 4.80353 8.19407 4.66307 8.0905 4.5595C7.98693 4.45593 7.84647 4.39775 7.7 4.39775C7.55353 4.39775 7.41307 4.45593 7.3095 4.5595L6.05 5.8245V0.55C6.05 0.404131 5.99205 0.264236 5.88891 0.161091C5.78576 0.0579462 5.64587 0 5.5 0C5.35413 0 5.21424 0.0579462 5.11109 0.161091C5.00795 0.264236 4.95 0.404131 4.95 0.55V5.8245L3.6905 4.5595C3.63922 4.50822 3.57834 4.46754 3.51134 4.43979C3.44434 4.41203 3.37252 4.39775 3.3 4.39775C3.22748 4.39775 3.15567 4.41203 3.08866 4.43979C3.02166 4.46754 2.96078 4.50822 2.9095 4.5595C2.85822 4.61078 2.81754 4.67166 2.78979 4.73866C2.76203 4.80567 2.74775 4.87748 2.74775 4.95C2.74775 5.02252 2.76203 5.09434 2.78979 5.16134C2.81754 5.22834 2.85822 5.28922 2.9095 5.3405L5.1095 7.5405Z" fill="#AFAFAF"/>
</svg>
