<svg width="20" height="20" viewBox="0 0 20 20" fill="none" xmlns="http://www.w3.org/2000/svg">
<g clip-path="url(#clip0_241_16129)">
<path d="M13.75 10H17.5C17.6658 10 17.8247 10.0658 17.9419 10.1831C18.0592 10.3003 18.125 10.4592 18.125 10.625V15.625C18.125 15.7908 18.0592 15.9497 17.9419 16.0669C17.8247 16.1842 17.6658 16.25 17.5 16.25H2.5C2.33424 16.25 2.17527 16.1842 2.05806 16.0669C1.94085 15.9497 1.875 15.7908 1.875 15.625V10.625C1.875 10.4592 1.94085 10.3003 2.05806 10.1831C2.17527 10.0658 2.33424 10 2.5 10H6.25" stroke="white" stroke-width="2" stroke-linecap="round" stroke-linejoin="round"/>
<path d="M10 1.875V10" stroke="white" stroke-width="2" stroke-linecap="round" stroke-linejoin="round"/>
<path d="M6.25 6.25L10 10L13.75 6.25" stroke="white" stroke-width="2" stroke-linecap="round" stroke-linejoin="round"/>
<path d="M14.6875 13.9062C15.119 13.9062 15.4688 13.5565 15.4688 13.125C15.4688 12.6935 15.119 12.3438 14.6875 12.3438C14.256 12.3438 13.9062 12.6935 13.9062 13.125C13.9062 13.5565 14.256 13.9062 14.6875 13.9062Z" fill="white"/>
</g>
<defs>
<clipPath id="clip0_241_16129">
<rect width="20" height="20" fill="white"/>
</clipPath>
</defs>
</svg>
