<svg width="11" height="11" viewBox="0 0 11 11" fill="none" xmlns="http://www.w3.org/2000/svg">
<path d="M10.5 5.5C10.3674 5.5 10.2402 5.55268 10.1464 5.64645C10.0527 5.74021 10 5.86739 10 6V9.5C10 9.77625 9.77625 10 9.5 10H1.5C1.22375 10 1 9.77625 1 9.5V1.5C1 1.22375 1.22375 1 1.5 1H5C5.13261 1 5.25979 0.947322 5.35355 0.853553C5.44732 0.759785 5.5 0.632608 5.5 0.5C5.5 0.367392 5.44732 0.240215 5.35355 0.146447C5.25979 0.0526784 5.13261 0 5 0H1.5C0.671625 0 0 0.671625 0 1.5V9.5C0 10.3284 0.671625 11 1.5 11H9.5C10.3284 11 11 10.3284 11 9.5V6C11 5.86739 10.9473 5.74021 10.8536 5.64645C10.7598 5.55268 10.6326 5.5 10.5 5.5ZM11 0.5V3.5C11 3.63261 10.9473 3.75979 10.8536 3.85355C10.7598 3.94732 10.6326 4 10.5 4C10.3674 4 10.2402 3.94732 10.1464 3.85355C10.0527 3.75979 10 3.63261 10 3.5V1.707L5.90363 5.80325C5.80919 5.89363 5.68312 5.94343 5.55241 5.94198C5.4217 5.94054 5.29676 5.88797 5.20434 5.79554C5.11192 5.7031 5.05937 5.57815 5.05795 5.44744C5.05653 5.31674 5.10636 5.19067 5.19675 5.09625L9.29288 1H7.5C7.36739 1 7.24021 0.947322 7.14645 0.853553C7.05268 0.759785 7 0.632608 7 0.5C7 0.367392 7.05268 0.240215 7.14645 0.146447C7.24021 0.0526784 7.36739 0 7.5 0H10.5C10.6326 0 10.7598 0.0526784 10.8536 0.146447C10.9473 0.240215 11 0.367392 11 0.5Z" fill="#AFAFAF"/>
</svg>
