<svg width="47" height="85" viewBox="0 0 47 85" fill="none" xmlns="http://www.w3.org/2000/svg">
<path d="M25.3112 37.3667C14.836 34.6133 11.4674 31.79 11.4674 27.3567C11.4674 22.27 16.1051 18.7 23.9269 18.7C32.1409 18.7 35.1866 22.6667 35.4634 28.5H45.6618C45.3618 20.45 40.4934 13.1233 30.8488 10.72V0.5H17.0049V10.58C8.05253 12.5633 0.853706 18.3967 0.853706 27.4267C0.853706 38.2067 9.69072 43.5733 22.5425 46.7C34.1021 49.5 36.3864 53.5833 36.3864 57.97C36.3864 61.1667 34.1483 66.3 23.9269 66.3C14.4207 66.3 10.6598 61.9833 10.1753 56.5H0C0.576829 66.72 8.12175 72.4367 17.0049 74.3733V84.5H30.8488V74.4667C39.8243 72.7167 47 67.4667 47 57.8767C47 44.67 35.7865 40.1433 25.3112 37.3667Z" fill="white"/>
</svg>
