<svg xmlns="http://www.w3.org/2000/svg" width="103" height="103" viewBox="0 0 103 103" fill="none">
  <rect x="0.00390625" width="103" height="103" rx="51.5" fill="#FF0000" />
  <path
    d="M65.2486 62.2099C66.2505 63.2128 66.2505 64.7728 65.2486 65.7757C64.7476 66.2771 64.1353 66.5 63.4674 66.5C62.7994 66.5 62.1871 66.2771 61.6862 65.7757L51.5 55.5797L41.3138 65.7757C40.8129 66.2771 40.2006 66.5 39.5326 66.5C38.8647 66.5 38.2524 66.2771 37.7514 65.7757C36.7495 64.7728 36.7495 63.2128 37.7514 62.2099L47.9376 52.0139L37.7514 41.818C36.7495 40.8151 36.7495 39.255 37.7514 38.2522C38.7534 37.2493 40.3119 37.2493 41.3138 38.2522L51.5 48.4481L61.6862 38.2522C62.6881 37.2493 64.2466 37.2493 65.2486 38.2522C66.2505 39.255 66.2505 40.8151 65.2486 41.818L55.0624 52.0139L65.2486 62.2099Z"
    fill="white" />
</svg>