<svg width="19" height="20" viewBox="0 0 19 20" fill="none" xmlns="http://www.w3.org/2000/svg">
<path d="M15.0536 5.83334C15.0535 4.54921 14.6298 3.30097 13.848 2.28221C13.0663 1.26346 11.9702 0.531114 10.7298 0.198764C9.48946 -0.133586 8.17408 -0.0473696 6.98769 0.444041C5.80131 0.935452 4.81022 1.8046 4.16814 2.91668C3.9474 3.29955 3.88773 3.75441 4.00227 4.18127C4.1168 4.60812 4.39616 4.97201 4.77892 5.19295C5.16168 5.41389 5.61651 5.47379 6.04342 5.35948C6.47033 5.24516 6.83437 4.96599 7.05551 4.58334C7.27524 4.20365 7.59086 3.88833 7.97076 3.66896C8.35066 3.44959 8.78153 3.33385 9.22022 3.33334C9.88326 3.33334 10.5191 3.59673 10.988 4.06558C11.4568 4.53442 11.7202 5.1703 11.7202 5.83334C11.7202 6.49638 11.4568 7.13227 10.988 7.60111C10.5191 8.06995 9.88326 8.33334 9.22022 8.33334H9.21616C9.10909 8.34406 9.00339 8.36568 8.90071 8.39784C8.78841 8.4095 8.67754 8.4322 8.56969 8.46559C8.47791 8.51544 8.39112 8.57396 8.31049 8.64034C8.21477 8.69241 8.12434 8.75367 8.04049 8.82326C7.96555 8.9127 7.90016 9.00972 7.84539 9.11276C7.78466 9.18792 7.73074 9.26833 7.68426 9.35304C7.64804 9.46791 7.6241 9.5863 7.61284 9.70622C7.58382 9.80205 7.56397 9.90042 7.55356 10V11.6667L7.55742 11.6856L7.55926 12.5041C7.5604 12.9454 7.7365 13.3682 8.04892 13.6799C8.36135 13.9915 8.78462 14.1666 9.22592 14.1667H9.22999C9.67201 14.1656 10.0955 13.9889 10.4073 13.6756C10.7191 13.3623 10.8936 12.938 10.8926 12.4959L10.89 11.3936C12.0893 11.0371 13.1418 10.3038 13.8917 9.30234C14.6417 8.30086 15.049 7.08446 15.0536 5.83334ZM8.04916 17.15C7.81515 17.3821 7.65521 17.6784 7.58955 18.0013C7.52389 18.3243 7.55547 18.6595 7.68028 18.9645C7.8051 19.2696 8.01755 19.5307 8.29078 19.7151C8.56402 19.8994 8.88576 19.9985 9.21534 20C9.65735 19.9964 10.0811 19.8234 10.3994 19.5167C10.7088 19.2005 10.882 18.7757 10.882 18.3334C10.882 17.8911 10.7088 17.4663 10.3994 17.1501C10.0804 16.8528 9.66045 16.6874 9.22432 16.6874C8.78818 16.6874 8.36825 16.8527 8.04916 17.15Z" fill="white"/>
</svg>
