<svg width="20" height="20" viewBox="0 0 20 20" fill="none" xmlns="http://www.w3.org/2000/svg">
<path d="M19.1279 10.6547C18.9106 10.6547 18.6932 10.5678 18.5194 10.4156L10 2.09182L1.48063 10.4156C1.1329 10.7416 0.589576 10.7416 0.241846 10.3939C-0.08415 10.0462 -0.08415 9.50285 0.263579 9.15512L9.39147 0.244499C9.7392 -0.0814996 10.2608 -0.0814996 10.6085 0.244499L19.7364 9.15512C20.0842 9.48112 20.0842 10.0462 19.7582 10.3939C19.5843 10.5678 19.3452 10.6547 19.1279 10.6547ZM17.2154 19.1307V10.633C17.2154 10.1548 16.8242 9.76365 16.3461 9.76365C15.8679 9.76365 15.4767 10.1548 15.4767 10.633V18.2613H12.7601V13.6104C12.7601 12.9802 12.2385 12.4586 11.6082 12.4586H8.39175C7.76149 12.4586 7.2399 12.9802 7.2399 13.6104V18.2613H4.52326V10.633C4.52326 10.1548 4.13207 9.76365 3.65394 9.76365C3.17581 9.76365 2.78462 10.1548 2.78462 10.633V19.1307C2.78462 19.6088 3.17581 20 3.65394 20H8.10922C8.58735 20 8.97855 19.6088 8.97855 19.1307V14.1972H11.0432V19.1307C11.0432 19.6088 11.4344 20 11.9125 20H16.3678C16.8459 20 17.2154 19.6088 17.2154 19.1307Z" fill="white"/>
</svg>
