<svg width="36" height="36" viewBox="0 0 36 36" fill="none" xmlns="http://www.w3.org/2000/svg">
<path d="M31.7912 3.25599C30.0199 1.45909 27.6813 0.330585 25.1725 0.0620684C22.6636 -0.206448 20.1392 0.401575 18.0277 1.78291C15.9163 3.16424 14.3479 5.23375 13.589 7.64007C12.83 10.0464 12.9273 12.6412 13.8641 14.984L1.08718 27.8265C-0.253158 29.196 0.0236517 30.3105 0.0236517 34.2951C0.0236517 34.4883 0.100399 34.6736 0.237009 34.8102C0.373619 34.9468 0.558903 35.0236 0.752099 35.0236H6.21545C6.4546 35.0236 6.69141 34.9765 6.91236 34.8849C7.13331 34.7934 7.33407 34.6593 7.50318 34.4902C7.67228 34.3211 7.80643 34.1203 7.89794 33.8994C7.98946 33.6784 8.03657 33.4416 8.03657 33.2024C8.03657 33.1059 8.07494 33.0132 8.14325 32.9449C8.21155 32.8766 8.30419 32.8382 8.40079 32.8382H9.12924C9.61223 32.8382 10.0754 32.6464 10.417 32.3048C10.7585 31.9633 10.9504 31.5001 10.9504 31.0171C10.9504 29.1523 10.7245 29.7205 11.8755 28.5768C12.0139 28.4311 12.0139 28.4675 13.4999 28.4675C13.9829 28.4675 14.4461 28.2757 14.7876 27.9342C15.1292 27.5926 15.321 27.1294 15.321 26.6464V25.2769C15.321 25.0657 15.0807 25.3716 19.4805 20.9718C19.5679 20.8771 19.3566 20.8771 20.0778 21.1539C21.3465 21.6549 22.6984 21.912 24.0624 21.9115C33.8454 21.9115 38.6313 10.067 31.7912 3.25599ZM13.8641 26.6464C13.8641 27.1053 13.4635 27.0106 12.1304 27.0106C11.2272 27.0106 10.8484 27.5351 10.0252 28.3583C8.91799 29.4655 9.98881 31.3813 9.12924 31.3813H8.40079C7.9178 31.3813 7.45459 31.5732 7.11307 31.9147C6.77154 32.2562 6.57968 32.7195 6.57968 33.2024C6.57968 33.299 6.5413 33.3917 6.473 33.46C6.40469 33.5283 6.31205 33.5667 6.21545 33.5667H1.48055V30.3979C1.48055 29.1377 1.2183 29.7569 14.5926 16.3753C14.959 17.014 15.3885 17.6143 15.8747 18.1673L4.24136 29.7715C4.13863 29.8734 4.06857 30.0035 4.0401 30.1454C4.01164 30.2873 4.02608 30.4344 4.08156 30.568C4.13704 30.7016 4.23106 30.8157 4.35164 30.8957C4.47221 30.9757 4.61387 31.0179 4.75856 31.0171C5.18834 31.0171 4.25593 31.8257 16.8799 19.2017C17.2909 19.5651 17.7292 19.8963 18.1911 20.1924C13.3615 25.0293 13.8641 23.973 13.8641 26.6464ZM30.7568 17.6792C29.4326 19.0041 27.7453 19.9065 25.9082 20.2723C24.0711 20.6381 22.1668 20.4509 20.4361 19.7342C18.7055 19.0176 17.2262 17.8039 16.1854 16.2465C15.1446 14.6891 14.5891 12.858 14.5891 10.9848C14.5891 9.11165 15.1446 7.28057 16.1854 5.72316C17.2262 4.16575 18.7055 2.95198 20.4361 2.23538C22.1668 1.51878 24.0711 1.33153 25.9082 1.69732C27.7453 2.06312 29.4326 2.96552 30.7568 4.29039C32.5317 6.06618 33.5287 8.47412 33.5287 10.9848C33.5287 13.4955 32.5317 15.9034 30.7568 17.6792Z" fill="white"/>
<path d="M27.7048 4.42871C27.1285 4.42871 26.5652 4.5996 26.086 4.91977C25.6068 5.23994 25.2334 5.69502 25.0128 6.22744C24.7923 6.75987 24.7346 7.34573 24.847 7.91095C24.9594 8.47617 25.2369 8.99536 25.6444 9.40286C26.0519 9.81036 26.5711 10.0879 27.1364 10.2003C27.7016 10.3127 28.2874 10.255 28.8199 10.0345C29.3523 9.81395 29.8074 9.44048 30.1275 8.96131C30.4477 8.48214 30.6186 7.91879 30.6186 7.3425C30.6186 6.56971 30.3116 5.82858 29.7652 5.28214C29.2187 4.7357 28.4776 4.42871 27.7048 4.42871ZM27.7048 8.79939C27.4167 8.79939 27.135 8.71395 26.8954 8.55386C26.6558 8.39378 26.4691 8.16624 26.3588 7.90003C26.2485 7.63382 26.2197 7.34088 26.2759 7.05827C26.3321 6.77566 26.4709 6.51607 26.6746 6.31232C26.8784 6.10857 27.138 5.96981 27.4206 5.9136C27.7032 5.85738 27.9961 5.88624 28.2623 5.9965C28.5285 6.10677 28.7561 6.29351 28.9162 6.53309C29.0763 6.77268 29.1617 7.05435 29.1617 7.3425C29.1617 7.72889 29.0082 8.09946 28.735 8.37268C28.4618 8.6459 28.0912 8.79939 27.7048 8.79939Z" fill="white"/>
</svg>
