<svg width="36" height="36" viewBox="0 0 36 36" fill="none" xmlns="http://www.w3.org/2000/svg">
<path d="M33.8522 18.0939H32.6849C32.0411 18.0939 31.5176 18.618 31.5176 19.2612V19.8449H30.3503V19.2612C30.3503 18.618 29.8267 18.0939 29.183 18.0939V14.5919C29.183 13.9487 28.6594 13.4246 28.0156 13.4246H26.8483V9.339C26.8483 8.37363 26.0627 7.58802 25.0973 7.58802H18.0934V6.21642L22.9997 4.03646C23.4316 3.86019 23.4619 3.20591 23.0464 2.99288L17.7934 0.0745811C17.4222 -0.146042 16.9127 0.152208 16.9261 0.584115V7.58802H9.9222C8.95683 7.58802 8.17123 8.37305 8.17123 9.339V13.4246H7.00391C6.36013 13.4246 5.83659 13.9482 5.83659 14.5919V18.0939C5.19281 18.0939 4.66927 18.6174 4.66927 19.2612V19.8449H3.50195V19.2612C3.50195 18.6174 2.97841 18.0939 2.33464 18.0939H1.16732C0.523542 18.0939 0 18.6174 0 19.2612V21.5958C0 22.6803 0.747084 23.5861 1.75098 23.8476V33.269C1.75098 34.2344 2.53658 35.02 3.50195 35.02H9.33854C10.3039 35.02 11.0895 34.2344 11.0895 33.269H23.93C23.93 34.2344 24.7156 35.02 25.681 35.02H31.5176C32.483 35.02 33.2686 34.2344 33.2686 33.269V23.8482C34.2725 23.5873 35.0195 22.6809 35.0195 21.5964V19.2618C35.0195 18.618 34.496 18.0939 33.8522 18.0939ZM18.0934 1.57634L21.4565 3.44463L18.0934 4.9388V1.57634ZM9.33854 9.339C9.33854 9.01741 9.60061 8.75534 9.9222 8.75534H25.0973C25.4189 8.75534 25.681 9.01741 25.681 9.339V13.4246H25.0973C24.4536 13.4246 23.93 13.9487 23.93 14.5919V15.1756H20.4281V14.5919C20.4281 13.9487 19.9045 13.4246 19.2607 13.4246H15.7588C15.115 13.4246 14.5915 13.9487 14.5915 14.5919V15.1756H11.0895V14.5919C11.0895 13.9487 10.566 13.4246 9.9222 13.4246H9.33854V9.339ZM9.9222 33.269C9.9222 33.5918 9.66014 33.8527 9.33854 33.8527H3.50195C3.18036 33.8527 2.9183 33.5918 2.9183 33.269V23.9305H9.9222V33.269ZM10.5059 22.7632H2.33464C1.69086 22.7632 1.16732 22.2396 1.16732 21.5958V19.2612H2.33464V20.4285C2.33464 20.5833 2.39613 20.7318 2.50559 20.8412C2.61504 20.9507 2.7635 21.0122 2.9183 21.0122H5.25293C5.40773 21.0122 5.55618 20.9507 5.66564 20.8412C5.7751 20.7318 5.83659 20.5833 5.83659 20.4285V19.2612H7.00391V20.4285C7.00391 20.5833 7.0654 20.7318 7.17486 20.8412C7.28432 20.9507 7.43277 21.0122 7.58757 21.0122H9.9222C10.077 21.0122 10.2255 20.9507 10.3349 20.8412C10.4444 20.7318 10.5059 20.5833 10.5059 20.4285V19.2612H11.6732V21.5958C11.6732 22.2396 11.1496 22.7632 10.5059 22.7632ZM20.4281 32.1017H14.5915V24.5141C14.5915 22.9056 15.9006 21.5958 17.5098 21.5958C19.1189 21.5958 20.4281 22.9056 20.4281 24.5141V32.1017ZM23.93 32.1017H21.5954V24.5141C21.5954 22.2618 19.7627 20.4285 17.5098 20.4285C15.2568 20.4285 13.4242 22.2618 13.4242 24.5141V32.1017H11.0895V23.8488C12.0934 23.5879 12.8405 22.6814 12.8405 21.597V19.2624C12.8405 18.6186 12.317 18.0951 11.6732 18.0951H10.5059C9.86209 18.0951 9.33854 18.6186 9.33854 19.2624V19.846H8.17123V19.2624C8.17123 18.6186 7.64768 18.0951 7.00391 18.0951V14.5931H9.9222V15.7604C9.9222 15.9152 9.9837 16.0637 10.0932 16.1731C10.2026 16.2826 10.3511 16.3441 10.5059 16.3441H15.1751C15.3299 16.3441 15.4784 16.2826 15.5878 16.1731C15.6973 16.0637 15.7588 15.9152 15.7588 15.7604V14.5931H19.2607V15.7604C19.2607 15.9152 19.3222 16.0637 19.4317 16.1731C19.5412 16.2826 19.6896 16.3441 19.8444 16.3441H24.5137C24.6685 16.3441 24.8169 16.2826 24.9264 16.1731C25.0358 16.0637 25.0973 15.9152 25.0973 15.7604V14.5931H28.0156V18.0951C27.3719 18.0951 26.8483 18.6186 26.8483 19.2624V19.846H25.681V19.2624C25.681 18.6186 25.1575 18.0951 24.5137 18.0951H23.3464C22.7026 18.0951 22.179 18.6186 22.179 19.2624V21.597C22.179 22.6814 22.9261 23.5873 23.93 23.8488V32.1017ZM32.1012 33.269C32.1012 33.5918 31.8392 33.8527 31.5176 33.8527H25.681C25.3594 33.8527 25.0973 33.5918 25.0973 33.269V23.9305H32.1012V33.269ZM33.8522 21.5958C33.8522 22.2396 33.3287 22.7632 32.6849 22.7632H24.5137C23.8699 22.7632 23.3464 22.2396 23.3464 21.5958V19.2612H24.5137V20.4285C24.5137 20.5833 24.5752 20.7318 24.6846 20.8412C24.7941 20.9507 24.9425 21.0122 25.0973 21.0122H27.432C27.5868 21.0122 27.7352 20.9507 27.8447 20.8412C27.9541 20.7318 28.0156 20.5833 28.0156 20.4285V19.2612H29.183V20.4285C29.183 20.5833 29.2444 20.7318 29.3539 20.8412C29.4634 20.9507 29.6118 21.0122 29.7666 21.0122H32.1012C32.256 21.0122 32.4045 20.9507 32.514 20.8412C32.6234 20.7318 32.6849 20.5833 32.6849 20.4285V19.2612H33.8522V21.5958Z" fill="white"/>
<path d="M27.4326 29.7669C27.5874 29.7669 27.7359 29.7054 27.8453 29.596C27.9548 29.4865 28.0163 29.3381 28.0163 29.1833V25.6813C28.0163 25.5265 27.9548 25.3781 27.8453 25.2686C27.7359 25.1591 27.5874 25.0977 27.4326 25.0977C27.2778 25.0977 27.1294 25.1591 27.0199 25.2686C26.9105 25.3781 26.849 25.5265 26.849 25.6813V29.1833C26.849 29.3381 26.9105 29.4865 27.0199 29.596C27.1294 29.7054 27.2778 29.7669 27.4326 29.7669ZM29.7673 29.7669C29.9221 29.7669 30.0705 29.7054 30.18 29.596C30.2894 29.4865 30.3509 29.3381 30.3509 29.1833V25.6813C30.3509 25.5265 30.2894 25.3781 30.18 25.2686C30.0705 25.1591 29.9221 25.0977 29.7673 25.0977C29.6125 25.0977 29.464 25.1591 29.3546 25.2686C29.2451 25.3781 29.1836 25.5265 29.1836 25.6813V29.1833C29.1836 29.3381 29.2451 29.4865 29.3546 29.596C29.464 29.7054 29.6125 29.7669 29.7673 29.7669ZM7.58822 29.7669C7.74301 29.7669 7.89147 29.7054 8.00093 29.596C8.11038 29.4865 8.17188 29.3381 8.17188 29.1833V25.6813C8.17188 25.5265 8.11038 25.3781 8.00093 25.2686C7.89147 25.1591 7.74301 25.0977 7.58822 25.0977C7.43342 25.0977 7.28497 25.1591 7.17551 25.2686C7.06605 25.3781 7.00456 25.5265 7.00456 25.6813V29.1833C7.00456 29.3381 7.06605 29.4865 7.17551 29.596C7.28497 29.7054 7.43342 29.7669 7.58822 29.7669ZM5.25358 29.7669C5.40838 29.7669 5.55683 29.7054 5.66629 29.596C5.77575 29.4865 5.83724 29.3381 5.83724 29.1833V25.6813C5.83724 25.5265 5.77575 25.3781 5.66629 25.2686C5.55683 25.1591 5.40838 25.0977 5.25358 25.0977C5.09878 25.0977 4.95033 25.1591 4.84087 25.2686C4.73141 25.3781 4.66992 25.5265 4.66992 25.6813V29.1833C4.66992 29.3381 4.73141 29.4865 4.84087 29.596C4.95033 29.7054 5.09878 29.7669 5.25358 29.7669Z" fill="white"/>
</svg>
