<svg width="52" height="51" viewBox="0 0 52 51" fill="none" xmlns="http://www.w3.org/2000/svg">
<ellipse cx="26" cy="25.5" rx="26" ry="25.5" fill="#F7971E"/>
<path d="M27.3414 27.9693C27.3414 27.5103 27.1995 27.1454 26.9179 26.8769C26.6407 26.6012 26.1695 26.3499 25.501 26.1198C24.9111 25.921 24.3334 25.6933 23.7703 25.4378C23.3176 25.228 22.8968 24.965 22.5186 24.6554C22.1764 24.3598 21.9014 24.0055 21.7093 23.6126C21.5186 23.2143 21.4232 22.7411 21.4232 22.1908C21.4232 21.2432 21.7547 20.4659 22.4177 19.8599C23.0796 19.2549 23.9599 18.9022 25.0586 18.8009V17.6729C25.0586 17.4944 25.1362 17.3233 25.2742 17.1971C25.4123 17.0709 25.5995 17 25.7948 17C25.99 17 26.1772 17.0709 26.3153 17.1971C26.4534 17.3233 26.5309 17.4944 26.5309 17.6729V18.8252C27.6174 18.965 28.4667 19.3805 29.0809 20.0697C29.4933 20.5308 29.7672 21.0831 29.9013 21.7287C30.0166 22.2789 29.5044 22.737 28.8924 22.737H28.449C27.837 22.737 27.3846 22.2668 27.185 21.7378C27.1193 21.553 27.0163 21.3811 26.8813 21.2311C26.5797 20.8946 26.175 20.7264 25.6662 20.7264C25.1628 20.7264 24.7737 20.8581 24.4976 21.1216C24.2204 21.38 24.0829 21.7388 24.0829 22.1979C24.0829 22.6245 24.2182 22.9671 24.4876 23.2245C24.7581 23.4829 25.2582 23.7464 25.9877 24.0149C26.7249 24.2845 27.3292 24.5399 27.8015 24.7811C28.2738 25.0162 28.6718 25.2858 28.9977 25.5888C29.3226 25.8857 29.5709 26.2273 29.7428 26.6144C29.9146 26.9965 30 27.4424 30 27.9521C30 28.9058 29.6752 29.68 29.0244 30.2739C28.3747 30.8688 27.4789 31.2194 26.338 31.3258V32.3311C26.338 32.5085 26.2609 32.6787 26.1237 32.8041C25.9865 32.9295 25.8003 33 25.6063 33C25.4122 33 25.2261 32.9295 25.0889 32.8041C24.9516 32.6787 24.8745 32.5085 24.8745 32.3311V31.3339C23.6173 31.2103 22.6417 30.8039 21.9476 30.1148C21.4753 29.6354 21.1649 29.0486 21.0163 28.3544C20.901 27.8052 21.4132 27.3461 22.0252 27.3461H22.4687C23.0807 27.3461 23.5353 27.8173 23.747 28.3433C23.8302 28.5521 23.9466 28.7335 24.0918 28.8865C24.4422 29.2392 24.9422 29.4155 25.5919 29.4155C26.1318 29.4155 26.5586 29.2868 26.8713 29.0294C27.1839 28.7659 27.3414 28.4122 27.3414 27.9693Z" fill="white"/>
<rect x="12.5" y="12.5" width="26" height="26" rx="13" stroke="white"/>
</svg>
