<svg width="20" height="20" viewBox="0 0 20 20" fill="none" xmlns="http://www.w3.org/2000/svg">
<g clip-path="url(#clip0_241_16110)">
<path d="M20.9132 0.41686C20.8447 0.289162 20.7434 0.182897 20.6202 0.109468C20.497 0.0360385 20.3565 -0.0017822 20.2137 6.45331e-05H14.2957C14.1723 0.0019132 14.0511 0.0333513 13.9419 0.091835C13.8327 0.150319 13.7385 0.234206 13.6669 0.336707L10.4367 4.90543C10.1462 4.88942 9.85493 4.88942 9.56435 4.90543L6.31845 0.352738C6.24691 0.250236 6.15271 0.166349 6.04348 0.107866C5.93425 0.0493819 5.81306 0.0179438 5.6897 0.0160951L-0.220516 6.45331e-05C-0.363228 -0.0017822 -0.503739 0.0360385 -0.62697 0.109468C-0.750201 0.182897 -0.8515 0.289162 -0.919996 0.41686C-0.980806 0.543581 -1.00774 0.684426 -0.998081 0.825164C-0.988421 0.965902 -0.942508 1.10155 -0.864981 1.21839L4.0078 8.22377C3.18443 9.46614 2.74631 10.9323 2.75031 12.4318C2.75004 13.6269 3.02736 14.8051 3.55957 15.8699C4.09178 16.9346 4.86373 17.8557 5.8122 18.5576C6.76067 19.2595 7.85868 19.7223 9.0163 19.908C10.1739 20.0938 11.3582 19.9973 12.4722 19.6263C13.5862 19.2554 14.5982 18.6206 15.4253 17.774C16.2524 16.9274 16.8711 15.893 17.2307 14.7555C17.5904 13.618 17.6807 12.4099 17.4943 11.23C17.3079 10.0501 16.85 8.93198 16.1583 7.96728L20.8739 1.21839C20.949 1.1001 20.9921 0.963721 20.999 0.823003C21.0059 0.682285 20.9763 0.542198 20.9132 0.41686ZM5.28101 1.61916L7.86673 5.27414H7.796C7.58209 5.34509 7.37219 5.42804 7.16725 5.52261H7.0808C6.85288 5.63482 6.62496 5.75505 6.4049 5.89131C6.34202 5.89131 6.27915 5.97147 6.21627 6.01154C6.1534 6.05162 5.90976 6.21193 5.76829 6.32414L5.54823 6.50048C5.41439 6.60602 5.28586 6.71837 5.16313 6.83712C5.12452 6.86967 5.08778 6.90446 5.05309 6.94132L1.30419 1.61114L5.28101 1.61916ZM10.1695 18.4513C8.6159 18.4471 7.12745 17.8141 6.03109 16.6915C4.93472 15.5688 4.32009 14.0483 4.32218 12.4639C4.31917 11.1174 4.76851 9.81049 5.59539 8.76079C5.70742 8.60937 5.82814 8.46484 5.95692 8.32797C6.84716 7.37209 8.02606 6.74836 9.30499 6.55658C9.59141 6.5153 9.88025 6.49388 10.1695 6.49246C10.3632 6.48071 10.5574 6.48071 10.7511 6.49246C10.9397 6.49246 11.1205 6.54055 11.3091 6.57262C12.7392 6.85921 14.0134 7.67875 14.8832 8.87142C15.7529 10.0641 16.156 11.5444 16.0137 13.0236C15.8714 14.5029 15.1939 15.8751 14.1135 16.8726C13.033 17.8702 11.627 18.4215 10.1695 18.4192V18.4513ZM15.0737 6.8291L14.9401 6.72491C14.8172 6.61394 14.6886 6.5096 14.555 6.41231C14.4764 6.3562 14.4057 6.29208 14.3271 6.24399C14.2485 6.1959 14.0284 6.0436 13.8713 5.95544C13.7141 5.86727 13.7377 5.86727 13.6669 5.83521C13.2121 5.57625 12.7295 5.37184 12.2287 5.22604H12.1894L14.7122 1.61916H18.6969L15.0737 6.8291Z" fill="white"/>
<path d="M13.3498 10.42L11.5535 10.1515L10.7444 8.47334C10.6781 8.33147 10.5747 8.21183 10.4459 8.12812C10.3171 8.0444 10.1682 8 10.0162 8C9.86418 8 9.71526 8.0444 9.58647 8.12812C9.45768 8.21183 9.35423 8.33147 9.28797 8.47334L8.47885 10.1515L6.6826 10.42C6.53431 10.4436 6.39524 10.5094 6.28093 10.6101C6.16663 10.7109 6.08158 10.8426 6.0353 10.9906C5.99237 11.1363 5.98852 11.2914 6.02416 11.4393C6.0598 11.5871 6.13358 11.7221 6.23758 11.8297L7.53218 13.1387L7.2328 14.9931C7.20259 15.1489 7.21567 15.3105 7.27054 15.4589C7.32541 15.6073 7.4198 15.7365 7.54272 15.8314C7.66565 15.9264 7.81205 15.9832 7.96489 15.9952C8.11772 16.0072 8.27071 15.974 8.40603 15.8993L10.0243 15.0602L11.6425 15.8993C11.7594 15.9647 11.89 15.9993 12.0228 16C12.177 15.9879 12.3252 15.9328 12.4516 15.8406C12.5757 15.7463 12.6713 15.6173 12.7272 15.4687C12.7831 15.32 12.7969 15.158 12.7672 15.0015L12.4678 13.1471L13.7624 11.8381C13.8664 11.7305 13.9402 11.5955 13.9758 11.4477C14.0115 11.2998 14.0076 11.1447 13.9647 10.999C13.9222 10.8539 13.8426 10.7234 13.7343 10.6215C13.6261 10.5195 13.4932 10.4499 13.3498 10.42ZM11.06 12.266C10.9665 12.362 10.897 12.4802 10.8575 12.6104C10.8181 12.7405 10.8098 12.8786 10.8334 13.0128L10.9305 13.6254L10.4046 13.3401C10.2875 13.2754 10.1569 13.2416 10.0243 13.2416C9.89165 13.2416 9.76105 13.2754 9.64399 13.3401L9.11806 13.6254L9.21515 13.0128C9.23877 12.8786 9.23048 12.7405 9.19101 12.6104C9.15153 12.4802 9.08205 12.362 8.9886 12.266L8.55976 11.8381L9.15042 11.7458C9.28006 11.7256 9.40302 11.6731 9.50873 11.5927C9.61444 11.5123 9.69973 11.4064 9.75726 11.2843L10.0243 10.7221L10.2913 11.2759C10.3488 11.3981 10.4341 11.5039 10.5398 11.5843C10.6455 11.6647 10.7685 11.7172 10.8981 11.7374L11.4888 11.8297L11.06 12.266Z" fill="white"/>
</g>
<defs>
<clipPath id="clip0_241_16110">
<rect width="20" height="20" fill="white"/>
</clipPath>
</defs>
</svg>
