<svg width="17" height="20" viewBox="0 0 17 20" fill="none" xmlns="http://www.w3.org/2000/svg">
<path d="M7.51789 0.000141744L7.66535 0.0163308L16.0008 1.68341C16.3417 1.75161 16.599 2.02204 16.658 2.35476L16.6708 2.50077V17.4993C16.6708 17.847 16.4561 18.1523 16.1415 18.2755L16.0008 18.3167L7.66535 19.9838C7.42047 20.0328 7.16654 19.9693 6.97342 19.8111C6.81892 19.6844 6.71636 19.5077 6.68152 19.3142L6.66833 19.1664V0.833683L6.68152 0.685954C6.71636 0.492472 6.81892 0.315732 6.97342 0.189074C7.12792 0.0624154 7.32133 -0.00348098 7.51789 0.000141744ZM5.00125 1.66723V3.33431H1.66708V16.6658H5.00125V18.3329H0.833542C0.424343 18.3329 0.0840077 18.038 0.0134295 17.6492L0 17.4993V2.50077C0 2.09157 0.294869 1.75123 0.683712 1.68066L0.833542 1.66723H5.00125ZM8.33541 1.85046V18.1497L15.0037 16.816V3.18412L8.33541 1.85046ZM10.836 9.16645C11.2964 9.16645 11.6696 9.53964 11.6696 9.99999C11.6696 10.4604 11.2964 10.8335 10.836 10.8335C10.3757 10.8335 10.0025 10.4604 10.0025 9.99999C10.0025 9.53964 10.3757 9.16645 10.836 9.16645Z" fill="white"/>
</svg>
