<svg width="17" height="20" viewBox="0 0 17 20" fill="none" xmlns="http://www.w3.org/2000/svg">
<path d="M11.3828 5.0465C11.3828 5.23304 11.3701 5.41958 11.3467 5.60399C11.3573 5.5298 11.3679 5.45349 11.3764 5.3793C11.3255 5.74813 11.228 6.10637 11.086 6.44976C11.1136 6.38193 11.1432 6.3141 11.1708 6.24627C11.0288 6.58119 10.8465 6.89491 10.6239 7.18319L10.7575 7.01149C10.537 7.29553 10.2805 7.55202 9.99647 7.77247L10.1682 7.63893C9.87988 7.85938 9.56616 8.0438 9.23125 8.18582C9.29908 8.15826 9.36691 8.12859 9.43474 8.10103C9.09135 8.24305 8.73311 8.34056 8.36428 8.39143C8.43847 8.38083 8.51478 8.37024 8.58897 8.36176C8.21802 8.41051 7.84495 8.41051 7.47399 8.36176C7.54818 8.37235 7.62449 8.38295 7.69868 8.39143C7.32985 8.34056 6.97162 8.24305 6.62822 8.10103C6.69605 8.12859 6.76388 8.15826 6.83172 8.18582C6.4968 8.0438 6.18308 7.8615 5.8948 7.63893L6.06649 7.77247C5.78245 7.55202 5.52596 7.29553 5.30551 7.01149L5.43906 7.18319C5.2186 6.89491 5.03419 6.58119 4.89217 6.24627C4.91972 6.3141 4.9494 6.38193 4.97695 6.44976C4.83493 6.10637 4.73743 5.74813 4.68655 5.3793C4.69715 5.45349 4.70775 5.5298 4.71623 5.60399C4.66747 5.23304 4.66747 4.85997 4.71623 4.48902C4.70563 4.56321 4.69503 4.63952 4.68655 4.71371C4.73743 4.34487 4.83493 3.98664 4.97695 3.64324C4.9494 3.71108 4.91972 3.77891 4.89217 3.84674C5.03419 3.51182 5.21648 3.1981 5.43906 2.90982L5.30551 3.08152C5.52596 2.79747 5.78245 2.54099 6.06649 2.32053L5.8948 2.45408C6.18308 2.23363 6.4968 2.04921 6.83172 1.90719C6.76388 1.93474 6.69605 1.96442 6.62822 1.99198C6.97162 1.84995 7.32985 1.75245 7.69868 1.70157C7.62449 1.71217 7.54818 1.72277 7.47399 1.73125C7.84495 1.6825 8.21802 1.6825 8.58897 1.73125C8.51478 1.72065 8.43847 1.71005 8.36428 1.70157C8.73311 1.75245 9.09135 1.84995 9.43474 1.99198C9.36691 1.96442 9.29908 1.93474 9.23125 1.90719C9.56616 2.04921 9.87988 2.23151 10.1682 2.45408L9.99647 2.32053C10.2805 2.54099 10.537 2.79747 10.7575 3.08152L10.6239 2.90982C10.8444 3.1981 11.0288 3.51182 11.1708 3.84674C11.1432 3.77891 11.1136 3.71108 11.086 3.64324C11.228 3.98664 11.3255 4.34487 11.3764 4.71371C11.3658 4.63952 11.3552 4.56321 11.3467 4.48902C11.3701 4.67343 11.3807 4.85997 11.3828 5.0465C11.3849 5.48953 11.7707 5.91559 12.2307 5.89439C12.6885 5.8732 13.0807 5.52132 13.0786 5.0465C13.0743 4.03115 12.7691 2.99249 12.1713 2.16579C12.0102 1.94322 11.8385 1.72489 11.6477 1.52776C11.4548 1.3285 11.2429 1.1568 11.0224 0.989345C10.6218 0.684105 10.1745 0.459413 9.69971 0.285596C7.78559 -0.416034 5.47721 0.209285 4.18206 1.78636C4.004 2.00257 3.83442 2.22727 3.69028 2.46891C3.54614 2.70844 3.43379 2.96281 3.32993 3.22142C3.13491 3.70048 3.03528 4.20921 2.99501 4.7243C2.91658 5.73329 3.17943 6.7868 3.70512 7.65165C4.21173 8.48682 4.97695 9.20329 5.87148 9.60816C6.13433 9.72686 6.40353 9.83709 6.68334 9.91552C6.96102 9.99183 7.24294 10.0342 7.52911 10.0681C8.05056 10.1296 8.58261 10.0872 9.0977 9.98335C11.0542 9.58484 12.6928 7.89966 12.9959 5.92195C13.0404 5.63367 13.0743 5.34539 13.0743 5.05286C13.0764 4.60984 12.6822 4.18377 12.2264 4.20497C11.7686 4.21981 11.3828 4.57168 11.3828 5.0465ZM14.1956 18.3012H3.31933C2.83815 18.3012 2.35697 18.3054 1.87579 18.3012C1.8228 18.3012 1.76981 18.2969 1.71893 18.2906C1.79312 18.3012 1.86943 18.3118 1.94362 18.3202C1.85884 18.3075 1.77829 18.2842 1.69986 18.2524C1.76769 18.28 1.83552 18.3096 1.90335 18.3372C1.81856 18.3012 1.74013 18.2545 1.66594 18.1973L1.83764 18.3308C1.77405 18.2778 1.71469 18.2206 1.66382 18.157L1.79736 18.3287C1.74013 18.2545 1.69562 18.1761 1.65746 18.0913C1.68502 18.1591 1.71469 18.227 1.74225 18.2948C1.71045 18.2164 1.68926 18.1337 1.67442 18.051C1.68502 18.1252 1.69562 18.2015 1.70409 18.2757C1.67018 18.0192 1.6935 17.7479 1.6935 17.4893V16.5821C1.6935 16.3552 1.70621 16.1306 1.73589 15.9059C1.72529 15.9801 1.71469 16.0564 1.70621 16.1306C1.76557 15.696 1.88003 15.2699 2.05173 14.8651C2.02417 14.9329 1.9945 15.0007 1.96694 15.0686C2.13228 14.6828 2.34425 14.3203 2.60074 13.9875L2.4672 14.1592C2.72368 13.8307 3.01833 13.5339 3.349 13.2774L3.17731 13.4109C3.5101 13.1545 3.87258 12.9425 4.25837 12.7771C4.19054 12.8047 4.1227 12.8344 4.05487 12.8619C4.45974 12.6924 4.88369 12.5758 5.32035 12.5164C5.24616 12.527 5.16985 12.5376 5.09566 12.5461C5.40938 12.5058 5.72098 12.5037 6.03682 12.5037H9.91592C10.2657 12.5037 10.6133 12.5016 10.9631 12.5461C10.8889 12.5355 10.8126 12.5249 10.7384 12.5164C11.1729 12.5758 11.599 12.6902 12.0039 12.8619C11.936 12.8344 11.8682 12.8047 11.8004 12.7771C12.1861 12.9425 12.5486 13.1545 12.8814 13.4109L12.7097 13.2774C13.0383 13.5339 13.335 13.8285 13.5915 14.1592L13.458 13.9875C13.7145 14.3203 13.9264 14.6828 14.0918 15.0686C14.0642 15.0007 14.0345 14.9329 14.007 14.8651C14.1766 15.2699 14.2932 15.6939 14.3525 16.1306C14.3419 16.0564 14.3313 15.9801 14.3228 15.9059C14.3631 16.2259 14.3652 16.5439 14.3652 16.8661V17.9154C14.3652 18.0362 14.3695 18.157 14.3546 18.2757C14.3652 18.2015 14.3758 18.1252 14.3843 18.051C14.3716 18.1358 14.3483 18.2164 14.3165 18.2948C14.344 18.227 14.3737 18.1591 14.4013 18.0913C14.3652 18.1761 14.3186 18.2545 14.2614 18.3287L14.3949 18.157C14.3419 18.2206 14.2847 18.28 14.2211 18.3308L14.3928 18.1973C14.3186 18.2545 14.2402 18.299 14.1554 18.3372C14.2232 18.3096 14.291 18.28 14.3589 18.2524C14.2804 18.2842 14.1978 18.3054 14.1151 18.3202C14.1893 18.3096 14.2656 18.299 14.3398 18.2906C14.2932 18.2969 14.2444 18.299 14.1956 18.3012C13.9773 18.3033 13.7526 18.3944 13.5958 18.5492C13.4495 18.6954 13.3372 18.9371 13.3478 19.149C13.369 19.6027 13.7208 20.0033 14.1956 19.9969C15.0202 19.9842 15.7452 19.4458 15.9868 18.6552C16.0822 18.3414 16.061 18.0044 16.061 17.6822C16.061 16.9445 16.0843 16.2132 15.9571 15.4819C15.7706 14.4115 15.2322 13.4046 14.4945 12.6139C13.7569 11.8233 12.7648 11.2425 11.7156 10.9839C11.1136 10.8355 10.5073 10.8122 9.8926 10.8122H6.13221C5.50265 10.8122 4.87733 10.8418 4.26473 11.0051C3.22394 11.2806 2.24463 11.8678 1.5218 12.6648C0.792612 13.4682 0.2648 14.4772 0.0931022 15.554C-0.0213631 16.2768 0.00195384 17.0018 0.00195384 17.731C0.00195384 18.0659 -0.0171236 18.4156 0.103701 18.7357C0.260561 19.1469 0.510689 19.4712 0.877401 19.715C1.16356 19.9037 1.52604 19.9948 1.86519 19.9991C2.03053 20.0012 2.19587 19.9991 2.36121 19.9991H14.1978C14.6408 19.9991 15.0669 19.609 15.0457 19.1512C15.0245 18.6891 14.6726 18.3012 14.1956 18.3012Z" fill="white"/>
</svg>
