<svg width="147" height="138" viewBox="0 0 147 138" fill="none" xmlns="http://www.w3.org/2000/svg">
<path d="M105.781 41.9873C106.447 41.9873 106.891 41.5435 106.891 40.8779V38.3263C106.891 36.4404 105.559 35.1091 103.673 35.1091H101.344C99.5687 35.1091 98.1265 36.5513 98.1265 38.3263V39.5466C97.128 39.5466 96.2405 39.3248 95.353 39.1029L77.603 35.2201C75.7171 34.8873 73.7202 35.1091 71.9452 35.8857L61.9608 40.5451C61.4062 40.767 61.1843 41.4326 61.4062 41.9873C61.739 42.8748 62.7374 42.542 62.8483 42.542L72.8327 37.8826C74.2749 37.3279 75.7171 37.106 77.1593 37.4388L94.9093 41.3216C95.7968 41.5435 96.9062 41.6545 98.1265 41.7654V57.2966C96.3515 57.1857 92.3577 58.7388 92.3577 58.7388C91.0265 59.1826 89.4733 59.4045 87.8093 59.4045H78.1577C76.9374 59.4045 75.939 58.406 75.939 57.1857C75.939 55.9654 76.9374 54.967 78.1577 54.967H82.5952C84.1483 54.967 85.4796 53.9685 85.9233 52.5263C86.3671 51.0841 85.8124 49.531 84.5921 48.7545L77.714 44.0951C77.4921 44.0951 77.2702 43.9841 77.0483 43.9841H45.9858C44.0999 43.9841 42.6577 45.4263 42.6577 47.3123V62.8435C42.6577 63.5091 43.1015 63.9529 43.7671 63.9529C44.4327 63.9529 44.8765 63.5091 44.8765 62.8435V47.3123C44.8765 46.6466 45.3202 46.2029 45.9858 46.2029H76.7155L83.3718 50.6404C84.0374 51.0841 83.9265 51.7498 83.8155 51.9716C83.7046 52.1935 83.4827 52.8591 82.5952 52.8591H78.1577C75.7171 52.8591 73.7202 54.856 73.7202 57.2966C73.7202 59.7373 75.7171 61.7341 78.1577 61.7341H87.8093C89.6952 61.7341 91.4702 61.4013 93.0233 60.8466C93.0233 60.8466 96.7952 59.2935 98.1265 59.5154V60.7357C98.1265 62.5107 99.5687 63.9529 101.344 63.9529H103.673C105.448 63.9529 106.891 62.5107 106.891 60.7357V45.0935C106.891 44.4279 106.447 43.9841 105.781 43.9841C105.116 43.9841 104.672 44.4279 104.672 45.0935V60.7357C104.672 61.1795 104.339 61.7341 103.673 61.7341H101.344C100.9 61.7341 100.345 61.4013 100.345 60.7357V38.3263C100.345 37.8826 100.678 37.3279 101.344 37.3279H103.673C104.228 37.3279 104.672 37.7716 104.672 38.3263V40.8779C104.672 41.4326 105.116 41.9873 105.781 41.9873ZM88.1421 68.3904C88.8077 68.3904 89.2515 67.9466 89.2515 67.281C89.2515 66.6154 89.6952 66.1716 90.3608 66.1716C91.0265 66.1716 91.4702 65.7279 91.4702 65.0623C91.4702 64.3966 91.0265 63.9529 90.3608 63.9529C88.9187 63.9529 87.6983 64.8404 87.2546 66.1716H81.4858C80.8202 66.1716 80.3765 66.6154 80.3765 67.281C80.3765 67.9466 80.8202 68.3904 81.4858 68.3904H88.1421Z" fill="white"/>
<path d="M79.1562 49.5312C79.1562 48.8656 78.7124 48.4219 78.0468 48.4219H50.4233C49.7577 48.4219 49.314 48.8656 49.314 49.5312C49.314 50.1969 48.8702 50.6406 48.2046 50.6406C47.539 50.6406 47.0952 51.0844 47.0952 51.75V65.0625C47.0952 65.7281 47.539 66.1719 48.2046 66.1719C48.8702 66.1719 49.314 66.6156 49.314 67.2812C49.314 67.9469 49.7577 68.3906 50.4233 68.3906H77.1593C77.8249 68.3906 78.2687 67.9469 78.2687 67.2812C78.2687 66.6156 77.8249 66.1719 77.1593 66.1719H51.3108C50.978 65.1734 50.2015 64.5078 49.314 64.175V52.6375C50.3124 52.3047 50.978 51.5281 51.3108 50.6406H78.0468C78.6015 50.6406 79.1562 50.1969 79.1562 49.5312ZM55.7483 82.8125C53.8624 82.1469 51.9765 82.0359 50.0905 82.5906C49.5358 82.7016 49.0921 83.3672 49.314 83.9219C49.4249 84.4766 50.0905 84.9203 50.6452 84.6984C52.0874 84.3656 53.4187 84.3656 54.9718 84.9203L56.6358 85.475C56.7468 85.475 57.7452 85.6969 58.078 84.8094C58.2999 84.2547 57.9671 83.5891 57.4124 83.3672L55.7483 82.8125Z" fill="white"/>
<path d="M98.3485 80.3719C97.2392 79.4844 95.797 79.2625 94.4657 79.5953L78.047 86.1406C77.8251 83.8109 76.0501 82.1469 73.6095 82.1469H68.2845C66.6204 82.1469 65.0673 81.925 63.736 81.3703L55.6376 78.7078C53.5298 77.9312 51.311 77.9312 49.2032 78.7078L46.8735 79.4844V78.375C46.8735 76.4891 45.4313 75.0469 43.5454 75.0469H41.3267C39.4407 75.0469 37.9985 76.4891 37.9985 78.375V80.5938C37.9985 81.2594 38.4423 81.7031 39.1079 81.7031C39.7735 81.7031 40.2173 81.2594 40.2173 80.5938V78.375C40.2173 77.7094 40.661 77.2656 41.3267 77.2656H43.5454C44.211 77.2656 44.6548 77.7094 44.6548 78.375V100.562C44.6548 101.228 44.211 101.672 43.5454 101.672H41.3267C40.661 101.672 40.2173 101.228 40.2173 100.562V84.5875C40.2173 83.9219 39.7735 83.4781 39.1079 83.4781C38.4423 83.4781 37.9985 83.9219 37.9985 84.5875V100.562C37.9985 102.448 39.4407 103.891 41.3267 103.891H43.5454C45.4313 103.891 46.8735 102.448 46.8735 100.562V99.1203C46.8735 99.1203 51.7548 96.9016 57.1907 98.5656L65.511 101.006C66.6204 101.228 70.836 101.894 74.6079 100.341L81.597 96.5688C82.1517 96.2359 82.3735 95.5703 82.0407 95.0156C81.7079 94.4609 81.0423 94.2391 80.4876 94.5719L74.0532 98.3438C71.6126 99.3422 68.9501 99.5641 66.3985 98.8984L58.0782 96.4578C52.6423 94.7937 47.0954 96.7906 47.0954 96.7906V81.925L50.0907 80.8156C51.7548 80.2609 53.3079 80.2609 55.0829 80.8156L63.1813 83.4781C64.7345 84.0328 66.5095 84.3656 68.3954 84.3656H73.7204C74.9407 84.3656 75.9392 85.3641 75.9392 86.5844C75.9392 87.8047 74.9407 88.8031 73.7204 88.8031H61.5173C60.8517 88.8031 60.4079 89.2469 60.4079 89.9125C60.4079 90.5781 60.8517 91.0219 61.5173 91.0219H73.7204C75.3845 91.0219 76.8267 90.1344 77.6032 88.8031L95.1313 81.8141C96.7954 81.2594 97.9048 83.2562 97.9048 84.0328C97.9048 84.9203 97.3501 85.8078 96.4626 86.1406L91.3595 88.9141C90.8048 89.2469 90.5829 89.9125 90.9157 90.4672C91.3595 91.2438 92.247 91.0219 92.4688 90.9109L97.572 88.1375C99.1251 87.3609 100.234 85.8078 100.234 83.9219C100.124 82.5906 99.4579 81.2594 98.3485 80.3719Z" fill="white"/>
<path d="M87.4765 91.0219L85.3687 92.1313C84.814 92.4641 84.5921 93.1297 84.9249 93.6844C85.3687 94.4609 86.2562 94.2391 86.478 94.1281L88.5858 93.0187C89.1405 92.6859 89.3624 92.0203 89.0296 91.4656C88.6968 90.9109 88.0312 90.6891 87.4765 91.0219ZM53.7515 55.0781H54.8608C55.5265 55.0781 55.9702 54.6344 55.9702 53.9688C55.9702 53.3031 55.5265 52.8594 54.8608 52.8594H53.4187C52.3093 52.8594 51.5327 53.6359 51.5327 54.7453V56.1875C51.5327 56.8531 51.9765 57.2969 52.6421 57.2969C53.3077 57.2969 53.7515 56.8531 53.7515 56.1875V55.0781ZM52.6421 59.5156C51.9765 59.5156 51.5327 59.9594 51.5327 60.625V62.8438C51.5327 63.5094 51.9765 63.9531 52.6421 63.9531C53.3077 63.9531 53.7515 63.5094 53.7515 62.8438V60.625C53.7515 59.9594 53.3077 59.5156 52.6421 59.5156ZM45.9858 72.8281H92.5796C94.4655 72.8281 95.9077 71.3859 95.9077 69.5V62.8438C95.9077 62.1781 95.464 61.7344 94.7983 61.7344C94.1327 61.7344 93.689 62.1781 93.689 62.8438V69.5C93.689 70.1656 93.2452 70.6094 92.5796 70.6094H45.9858C45.3202 70.6094 44.8765 70.1656 44.8765 69.5V67.2812C44.8765 66.6156 44.4327 66.1719 43.7671 66.1719C43.1015 66.1719 42.6577 66.6156 42.6577 67.2812V69.5C42.6577 71.3859 44.0999 72.8281 45.9858 72.8281Z" fill="white"/>
</svg>

