<svg width="55" height="48" viewBox="0 0 55 48" fill="none" xmlns="http://www.w3.org/2000/svg">
<path d="M1.33876 37.275L23.3388 43.875H23.9388C24.1388 43.875 24.3388 43.875 24.4388 43.775L32.2388 41.475C34.2388 45.275 38.2388 47.875 42.8388 47.875C49.4388 47.875 54.8388 42.475 54.8388 35.875C54.8388 31.075 51.9388 26.875 47.8388 24.975V8.375C47.8388 8.275 47.7388 8.175 47.7388 8.075V7.975C47.6388 7.875 47.6388 7.775 47.5388 7.575L47.4388 7.475C47.3388 7.375 47.3388 7.275 47.2388 7.275H47.1388C47.0388 7.175 46.9388 7.175 46.9388 7.175C46.8388 7.175 46.8388 7.175 46.7388 7.075H46.6388L24.6388 0.075C24.2388 -0.025 23.8388 -0.025 23.4388 0.075L1.43876 7.075H1.33876C1.23876 7.075 1.23876 7.075 1.13876 7.175C1.03876 7.175 0.93876 7.275 0.93876 7.275H0.83876C0.73876 7.375 0.63876 7.375 0.63876 7.475L0.53876 7.575C0.43876 7.675 0.33876 7.775 0.33876 7.975V8.075C0.33876 8.175 0.23876 8.275 0.23876 8.375V35.275C-0.0612397 36.175 0.53876 36.975 1.33876 37.275ZM3.93876 11.575L10.9388 13.675V17.875C10.9388 18.975 11.8388 19.875 12.9388 19.875C14.0388 19.875 14.9388 18.975 14.9388 17.875V14.875L21.9388 16.975V39.275L3.93876 33.775V11.575ZM39.1388 8.775L23.9388 13.375L20.4388 12.375L34.3388 7.375L39.1388 8.775ZM50.9388 35.875C50.9388 40.275 47.3388 43.875 42.9388 43.875C38.5388 43.875 34.9388 40.275 34.9388 35.875C34.9388 31.475 38.5388 27.875 42.9388 27.875C47.3388 27.875 50.9388 31.475 50.9388 35.875ZM42.9388 23.875C36.3388 23.875 30.9388 29.275 30.9388 35.875C30.9388 36.475 31.0388 37.075 31.0388 37.675L25.9388 39.175V16.975L43.9388 11.575V23.975C43.6388 23.875 43.2388 23.875 42.9388 23.875ZM23.9388 3.975L28.1388 5.275L13.9388 10.375L8.73876 8.775L23.9388 3.975Z" fill="white"/>
</svg>
