<svg width="134" height="125" viewBox="0 0 134 125" fill="none" xmlns="http://www.w3.org/2000/svg">
<path d="M40.625 63.3125C47.1051 63.3125 52.375 58.0426 52.375 51.5625C52.375 45.0824 47.1051 39.8125 40.625 39.8125C34.1449 39.8125 28.875 45.0824 28.875 51.5625C28.875 58.0426 34.1449 63.3125 40.625 63.3125ZM40.625 45.6875C43.8651 45.6875 46.5 48.3224 46.5 51.5625C46.5 54.8026 43.8651 57.4375 40.625 57.4375C37.3849 57.4375 34.75 54.8026 34.75 51.5625C34.75 48.3224 37.3849 45.6875 40.625 45.6875ZM31.8125 75.0625H35.0437C36.6682 75.0625 37.9812 73.7494 37.9812 72.125C37.9812 70.5006 36.6682 69.1875 35.0437 69.1875H31.8125C26.9539 69.1875 23 73.1414 23 78V89.75C23 91.3744 24.3131 92.6875 25.9375 92.6875H34.75C36.3744 92.6875 37.6875 91.3744 37.6875 89.75C37.6875 88.1256 36.3744 86.8125 34.75 86.8125H28.875V78C28.875 76.3785 30.191 75.0625 31.8125 75.0625ZM67.0625 60.375C75.1612 60.375 81.75 53.7862 81.75 45.6875C81.75 37.5888 75.1612 31 67.0625 31C58.9638 31 52.375 37.5888 52.375 45.6875C52.375 53.7862 58.9638 60.375 67.0625 60.375ZM67.0625 36.875C71.9211 36.875 75.875 40.8289 75.875 45.6875C75.875 50.5461 71.9211 54.5 67.0625 54.5C62.2039 54.5 58.25 50.5461 58.25 45.6875C58.25 40.8289 62.2039 36.875 67.0625 36.875ZM108.188 51.5625H99.375V42.75C99.375 41.1256 98.0619 39.8125 96.4375 39.8125C94.8131 39.8125 93.5 41.1256 93.5 42.75V51.5625H84.6875C83.0631 51.5625 81.75 52.8756 81.75 54.5C81.75 56.1244 83.0631 57.4375 84.6875 57.4375H93.5V66.25C93.5 67.8744 94.8131 69.1875 96.4375 69.1875C98.0619 69.1875 99.375 67.8744 99.375 66.25V57.4375H108.188C109.812 57.4375 111.125 56.1244 111.125 54.5C111.125 52.8756 109.812 51.5625 108.188 51.5625ZM84.6875 66.25H49.4375C44.5789 66.25 40.625 70.2039 40.625 75.0625V92.6875C40.625 94.3119 41.9381 95.625 43.5625 95.625H90.5625C92.1869 95.625 93.5 94.3119 93.5 92.6875V75.0625C93.5 70.2039 89.5461 66.25 84.6875 66.25ZM87.625 89.75H46.5V75.0625C46.5 73.441 47.816 72.125 49.4375 72.125H84.6875C86.309 72.125 87.625 73.441 87.625 75.0625V89.75Z" fill="white"/>
</svg>

