<svg width="30" height="30" viewBox="0 0 30 30" fill="none" xmlns="http://www.w3.org/2000/svg">
<path fill-rule="evenodd" clip-rule="evenodd" d="M24.8443 27H5.15715C4.09817 27 3.31518 25.9545 3.71567 24.993C5.56964 20.547 9.92556 18 15 18C20.0759 18 24.4318 20.547 26.2858 24.993C26.6863 25.9545 25.9033 27 24.8443 27ZM8.87558 8.99998C8.87558 5.69098 11.6235 2.99998 15 2.99998C18.3779 2.99998 21.1244 5.69098 21.1244 8.99998C21.1244 12.309 18.3779 15 15 15C11.6235 15 8.87558 12.309 8.87558 8.99998ZM29.9337 26.454C28.8207 21.4155 25.3378 17.697 20.7554 16.0095C23.1838 14.0939 24.5998 10.9964 24.0793 7.6049C23.4763 3.6704 20.1344 0.521966 16.1025 0.0629653C10.5346 -0.571535 5.81264 3.67348 5.81264 8.99998C5.81264 11.835 7.15361 14.3609 9.24608 16.0095C4.66066 17.697 1.18071 21.4155 0.0662341 26.454C-0.338759 28.2855 1.16872 30 3.08118 30H26.9188C28.8327 30 30.3387 28.2855 29.9337 26.454Z" fill="white"/>
</svg>
