<svg width="13" height="14" viewBox="0 0 13 14" fill="none" xmlns="http://www.w3.org/2000/svg">
<path d="M6.25 13.2751C9.70178 13.2751 12.5 10.4768 12.5 7.02505C12.5 3.57328 9.70178 0.775055 6.25 0.775055C2.79822 0.775055 0 3.57328 0 7.02505C0 10.4768 2.79822 13.2751 6.25 13.2751Z" fill="#092236"/>
<path d="M6.24939 12.4144C9.2262 12.4144 11.6394 10.0013 11.6394 7.02444C11.6394 4.04763 9.2262 1.63443 6.24939 1.63443C3.27257 1.63443 0.859375 4.04763 0.859375 7.02444C0.859375 10.0013 3.27257 12.4144 6.24939 12.4144Z" fill="white"/>
<path d="M6.24933 10.7444C8.30383 10.7444 9.9693 9.07888 9.9693 7.02438C9.9693 4.96988 8.30383 3.30435 6.24933 3.30435C4.19483 3.30435 2.5293 4.96988 2.5293 7.02438C2.5293 9.07888 4.19483 10.7444 6.24933 10.7444Z" fill="#092236"/>
</svg>

