<svg width="89" height="65" viewBox="0 0 89 65" fill="none" xmlns="http://www.w3.org/2000/svg">
<path d="M17.625 32.3125C24.1051 32.3125 29.375 27.0426 29.375 20.5625C29.375 14.0824 24.1051 8.8125 17.625 8.8125C11.1449 8.8125 5.875 14.0824 5.875 20.5625C5.875 27.0426 11.1449 32.3125 17.625 32.3125ZM17.625 14.6875C20.8651 14.6875 23.5 17.3224 23.5 20.5625C23.5 23.8026 20.8651 26.4375 17.625 26.4375C14.3849 26.4375 11.75 23.8026 11.75 20.5625C11.75 17.3224 14.3849 14.6875 17.625 14.6875ZM8.8125 44.0625H12.0437C13.6682 44.0625 14.9812 42.7494 14.9812 41.125C14.9812 39.5006 13.6682 38.1875 12.0437 38.1875H8.8125C3.95387 38.1875 0 42.1414 0 47V58.75C0 60.3744 1.31306 61.6875 2.9375 61.6875H11.75C13.3744 61.6875 14.6875 60.3744 14.6875 58.75C14.6875 57.1256 13.3744 55.8125 11.75 55.8125H5.875V47C5.875 45.3785 7.191 44.0625 8.8125 44.0625ZM44.0625 29.375C52.1612 29.375 58.75 22.7862 58.75 14.6875C58.75 6.58881 52.1612 0 44.0625 0C35.9638 0 29.375 6.58881 29.375 14.6875C29.375 22.7862 35.9638 29.375 44.0625 29.375ZM44.0625 5.875C48.9211 5.875 52.875 9.82887 52.875 14.6875C52.875 19.5461 48.9211 23.5 44.0625 23.5C39.2039 23.5 35.25 19.5461 35.25 14.6875C35.25 9.82887 39.2039 5.875 44.0625 5.875ZM85.1875 20.5625H76.375V11.75C76.375 10.1256 75.0619 8.8125 73.4375 8.8125C71.8131 8.8125 70.5 10.1256 70.5 11.75V20.5625H61.6875C60.0631 20.5625 58.75 21.8756 58.75 23.5C58.75 25.1244 60.0631 26.4375 61.6875 26.4375H70.5V35.25C70.5 36.8744 71.8131 38.1875 73.4375 38.1875C75.0619 38.1875 76.375 36.8744 76.375 35.25V26.4375H85.1875C86.8119 26.4375 88.125 25.1244 88.125 23.5C88.125 21.8756 86.8119 20.5625 85.1875 20.5625ZM61.6875 35.25H26.4375C21.5789 35.25 17.625 39.2039 17.625 44.0625V61.6875C17.625 63.3119 18.9381 64.625 20.5625 64.625H67.5625C69.1869 64.625 70.5 63.3119 70.5 61.6875V44.0625C70.5 39.2039 66.5461 35.25 61.6875 35.25ZM64.625 58.75H23.5V44.0625C23.5 42.441 24.816 41.125 26.4375 41.125H61.6875C63.309 41.125 64.625 42.441 64.625 44.0625V58.75Z" fill="white"/>
</svg>
