<svg width="12" height="13" viewBox="0 0 12 13" fill="none" xmlns="http://www.w3.org/2000/svg">
<path d="M12 11.7719L8.45938 8.22812C9.10938 7.41562 9.5 6.38125 9.5 5.25625C9.5 2.62812 7.37187 0.5 4.75 0.5C2.125 0.5 0 2.63125 0 5.25625C0 7.88125 2.12812 10.0125 4.75 10.0125C5.88125 10.0125 6.91875 9.61563 7.73437 8.95625L11.2719 12.5L12 11.7719ZM1.74375 8.26875C0.940625 7.46563 0.5 6.39688 0.5 5.25938C0.5 4.12188 0.94375 3.05312 1.74375 2.25C2.54375 1.44687 3.61562 1 4.75 1C5.88438 1 6.95312 1.44375 7.75625 2.24688C8.55937 3.05 9 4.11875 9 5.25625C9 6.39375 8.55625 7.4625 7.75625 8.26562C6.95312 9.06875 5.88438 9.5125 4.75 9.5125C3.61562 9.51562 2.54688 9.07188 1.74375 8.26875Z" fill="#898989"/>
</svg>
