<svg width="49" height="49" viewBox="0 0 49 49" fill="none" xmlns="http://www.w3.org/2000/svg">
<path d="M38.8495 29.2565C37.4373 29.2658 36.0448 29.5879 34.7719 30.1995C33.4991 30.8111 32.3775 31.6972 31.4879 32.7939L19.2982 27.1771C19.8713 25.4221 19.8713 23.5303 19.2982 21.7754L31.4879 16.1585C32.9258 17.8937 34.9305 19.0651 37.1481 19.4661C39.3657 19.8671 41.6536 19.4718 43.6081 18.3501C45.5626 17.2283 47.0581 15.4522 47.8305 13.3352C48.603 11.2181 48.6028 8.89631 47.8299 6.77943C47.0571 4.66254 45.5613 2.8867 43.6066 1.76531C41.6519 0.643917 39.3639 0.249067 37.1464 0.650443C34.9288 1.05182 32.9244 2.22362 31.4868 3.95904C30.0491 5.69445 29.2707 7.88193 29.2889 10.1354C29.2961 10.7048 29.3521 11.2725 29.4563 11.8324L16.8363 17.6404C15.4909 16.3248 13.7871 15.4356 11.9385 15.084C10.0899 14.7324 8.1786 14.9342 6.44416 15.6641C4.70971 16.394 3.22922 17.6194 2.18816 19.187C1.14711 20.7545 0.591797 22.5944 0.591797 24.4762C0.591797 26.358 1.14711 28.1979 2.18816 29.7654C3.22922 31.333 4.70971 32.5585 6.44416 33.2883C8.1786 34.0182 10.0899 34.22 11.9385 33.8684C13.7871 33.5169 15.4909 32.6276 16.8363 31.312L29.4563 37.12C29.3521 37.6799 29.2961 38.2476 29.2889 38.817C29.2889 40.7079 29.8497 42.5563 30.9002 44.1286C31.9507 45.7008 33.4439 46.9262 35.1908 47.6498C36.9378 48.3734 38.8601 48.5627 40.7147 48.1939C42.5692 47.825 44.2727 46.9144 45.6098 45.5773C46.9469 44.2403 47.8574 42.5367 48.2263 40.6822C48.5952 38.8276 48.4059 36.9053 47.6823 35.1584C46.9587 33.4114 45.7333 31.9182 44.161 30.8677C42.5888 29.8172 40.7404 29.2565 38.8495 29.2565ZM38.8495 5.35513C39.7949 5.35513 40.7192 5.63549 41.5053 6.16075C42.2914 6.68601 42.9041 7.43259 43.2659 8.30607C43.6277 9.17955 43.7224 10.1407 43.5379 11.068C43.3535 11.9953 42.8982 12.847 42.2296 13.5156C41.5611 14.1841 40.7094 14.6394 39.7821 14.8238C38.8548 15.0083 37.8936 14.9136 37.0202 14.5518C36.1467 14.19 35.4001 13.5773 34.8748 12.7912C34.3496 12.0051 34.0692 11.0808 34.0692 10.1354C34.0692 8.86759 34.5728 7.65171 35.4693 6.75524C36.3658 5.85876 37.5817 5.35513 38.8495 5.35513ZM10.1679 29.2565C9.22242 29.2565 8.2982 28.9761 7.51209 28.4509C6.72598 27.9256 6.11328 27.179 5.75147 26.3055C5.38967 25.4321 5.295 24.4709 5.47945 23.5436C5.6639 22.6163 6.11917 21.7646 6.78771 21.096C7.45624 20.4275 8.308 19.9722 9.23528 19.7878C10.1626 19.6033 11.1237 19.698 11.9972 20.0598C12.8707 20.4216 13.6173 21.0343 14.1425 21.8204C14.6678 22.6065 14.9481 23.5308 14.9481 24.4762C14.9481 25.744 14.4445 26.9599 13.548 27.8564C12.6516 28.7528 11.4357 29.2565 10.1679 29.2565ZM38.8495 43.5973C37.904 43.5973 36.9798 43.3169 36.1937 42.7917C35.4076 42.2664 34.7949 41.5198 34.4331 40.6463C34.0713 39.7729 33.9766 38.8117 34.1611 37.8844C34.3455 36.9571 34.8008 36.1054 35.4693 35.4369C36.1379 34.7683 36.9896 34.313 37.9169 34.1286C38.8442 33.9441 39.8053 34.0388 40.6788 34.4006C41.5523 34.7624 42.2989 35.3751 42.8241 36.1612C43.3494 36.9473 43.6298 37.8716 43.6298 38.817C43.6298 40.0848 43.1261 41.3007 42.2296 42.1972C41.3332 43.0937 40.1173 43.5973 38.8495 43.5973Z" fill="white"/>
</svg>
