<svg width="182" height="237" viewBox="0 0 182 237" fill="none" xmlns="http://www.w3.org/2000/svg">
<path d="M176.034 32.2831L94.0348 0.730702C92.0865 -0.0157029 89.915 -0.0157029 87.9668 0.730702L5.96744 32.2831C4.44172 32.8676 3.1336 33.8794 2.21253 35.1873C1.29147 36.4953 0.799892 38.0392 0.801481 39.619V112.426C0.713166 139.104 8.98211 165.188 24.5303 187.279C40.0785 209.369 62.1847 226.441 87.9668 236.269C89.915 237.016 92.0865 237.016 94.0348 236.269C119.817 226.441 141.923 209.369 157.471 187.279C173.019 165.188 181.288 139.104 181.2 112.426V39.619C181.202 38.0392 180.71 36.4953 179.789 35.1873C178.868 33.8794 177.56 32.8676 176.034 32.2831ZM130.032 92.0748L88.1308 139.403C87.3609 140.269 86.4052 140.964 85.3294 141.441C84.2536 141.918 83.0833 142.164 81.8989 142.164C80.7144 142.164 79.5441 141.918 78.4683 141.441C77.3925 140.964 76.4368 140.269 75.6669 139.403L51.9691 112.584C51.0534 111.837 50.3194 110.906 49.819 109.856C49.3185 108.806 49.0638 107.663 49.0729 106.508C49.082 105.353 49.3546 104.214 49.8715 103.172C50.3884 102.129 51.1369 101.209 52.0642 100.475C52.9916 99.7416 54.075 99.2129 55.2381 98.9263C56.4012 98.6398 57.6155 98.6024 58.7952 98.8169C59.975 99.0313 61.0914 99.4924 62.0655 100.167C63.0397 100.843 63.8479 101.715 64.433 102.724L81.8989 122.523L117.569 82.2147C118.982 80.6247 120.994 79.6401 123.163 79.4774C125.331 79.3146 127.478 79.9872 129.13 81.347C130.783 82.7068 131.807 84.6426 131.976 86.7284C132.145 88.8142 131.446 90.8792 130.032 92.4692V92.0748Z" fill="white"/>
</svg>
