<svg width="27" height="30" viewBox="0 0 27 30" fill="none" xmlns="http://www.w3.org/2000/svg">
<path d="M14.1294 29.8251C15.1808 29.15 16.2354 28.4781 17.2869 27.8031C17.7628 27.4985 18.245 27.1971 18.7085 26.8706C19.8098 26.0951 20.8426 25.2128 21.7603 24.2206C23.577 22.252 24.9582 19.9192 25.8323 17.3791C26.5447 15.3038 26.8496 13.1154 26.8496 10.9238V6.74485C26.8496 6.18284 26.4607 5.69304 25.935 5.53292C25.5555 5.41674 25.1791 5.29743 24.8151 5.14359C24.9146 5.1844 25.0142 5.22836 25.1137 5.26918C24.4636 4.98974 23.8538 4.63181 23.2939 4.19853L23.5459 4.39633C22.9921 3.96305 22.4944 3.46383 22.0651 2.90495L22.2611 3.15927C21.8318 2.59412 21.4741 1.97559 21.1972 1.31939C21.2376 1.41986 21.2812 1.52033 21.3216 1.6208C21.2283 1.39474 21.1412 1.1624 21.0665 0.93006C20.8986 0.399444 20.4288 0.00697719 19.8657 0.00697719H8.70094C8.18765 0.00697719 7.67125 -0.00872149 7.15796 0.00697719H7.13618C6.57001 0.00697719 6.10338 0.399444 5.9354 0.93006C5.86074 1.16554 5.77675 1.39474 5.68031 1.6208C5.72075 1.52033 5.7643 1.41986 5.80474 1.31939C5.52788 1.97559 5.17013 2.59098 4.74084 3.15927L4.93682 2.90495C4.50752 3.46383 4.00979 3.96305 3.45606 4.39633L3.70804 4.19853C3.14808 4.63181 2.53525 4.98974 1.88819 5.26918C1.98774 5.22836 2.08729 5.1844 2.18683 5.14359C1.81976 5.29743 1.44645 5.41674 1.06693 5.53292C0.541199 5.69304 0.152344 6.18284 0.152344 6.74485V10.5314C0.152344 11.197 0.152344 11.8626 0.199006 12.5282C0.298553 13.8815 0.525645 15.2316 0.902057 16.5346C1.64866 19.1217 2.94277 21.5048 4.65995 23.5613C5.99451 25.1594 7.60281 26.453 9.34488 27.5676L12.7886 29.7717C12.8166 29.7905 12.8477 29.8094 12.8757 29.8282C13.4263 30.1799 14.2725 29.9632 14.5773 29.3761C14.9008 28.7544 14.7173 28.0354 14.1294 27.6586C13.5694 27.3007 13.0095 26.9428 12.4526 26.5849C11.7371 26.1265 11.0247 25.6712 10.3092 25.2128C9.8084 24.8925 9.32 24.5503 8.84715 24.1861L9.09913 24.3839C7.92323 23.464 6.86554 22.3964 5.95406 21.2096L6.15005 21.4639C5.22302 20.2489 4.45153 18.9176 3.85736 17.5047C3.8978 17.6052 3.94135 17.7057 3.98179 17.8061C3.37518 16.3524 2.96143 14.8265 2.75301 13.2629C2.76856 13.3728 2.78412 13.4859 2.79656 13.5958C2.66279 12.5785 2.64102 11.5612 2.64102 10.5408V6.75741C2.33615 7.16244 2.03129 7.56432 1.72643 7.96935C2.79967 7.64282 3.83869 7.20953 4.75017 6.54705C5.82963 5.76212 6.75044 4.79508 7.43483 3.63965C7.81124 3.00543 8.11299 2.31468 8.33697 1.61138C7.93567 1.91908 7.53748 2.22677 7.13618 2.53447H18.301C18.8143 2.53447 19.3307 2.54702 19.844 2.53447H19.8657C19.4645 2.22677 19.0663 1.91908 18.665 1.61138C19.4458 4.0698 21.219 6.20796 23.5459 7.31315C24.1058 7.58002 24.6813 7.78725 25.2755 7.96935C24.9706 7.56432 24.6658 7.16244 24.3609 6.75741V11.2096C24.3609 12.0071 24.308 12.8045 24.2054 13.5958C24.2209 13.4859 24.2365 13.3728 24.2489 13.2629C24.0374 14.8234 23.6236 16.3524 23.0201 17.8061C23.0606 17.7057 23.1041 17.6052 23.1446 17.5047C22.5504 18.9176 21.7789 20.2489 20.8519 21.4639L21.0479 21.2096C20.1364 22.3964 19.0787 23.464 17.9028 24.3839L18.1548 24.1861C17.458 24.7293 16.7176 25.1971 15.9772 25.6743C15.1559 26.2018 14.3347 26.7261 13.5134 27.2536C13.3019 27.3886 13.0872 27.5268 12.8757 27.6618C12.605 27.8345 12.3904 28.0951 12.3033 28.4122C12.2224 28.7136 12.2597 29.1123 12.4277 29.3792C12.7824 29.9318 13.5414 30.2018 14.1294 29.8251Z" fill="white"/>
<path d="M7.16061 14.9394L10.3554 18.1639L10.8096 18.6223C11.2856 19.1027 12.0944 19.1027 12.5704 18.6223L15.0373 16.1325L18.9414 12.1921L19.8404 11.2848C20.3008 10.8201 20.335 9.96606 19.8404 9.50766C19.3427 9.04612 18.5712 9.01158 18.0797 9.50766L15.6128 11.9975L11.7087 15.9378L10.8096 16.8452H12.5704L9.37552 13.6207L8.92134 13.1623C8.46094 12.6976 7.61479 12.6631 7.16061 13.1623C6.70331 13.6647 6.66909 14.4402 7.16061 14.9394Z" fill="white"/>
</svg>
