<svg width="65" height="73" viewBox="0 0 65 73" fill="none" xmlns="http://www.w3.org/2000/svg">
<path d="M34.1117 15.7625C41.3058 15.7625 43.9733 19.1979 44.2158 24.25H53.1479C52.865 17.2983 48.6213 10.9125 40.1742 8.85125V0H28.0492V8.73C26.4729 9.05333 25.0179 9.57875 23.6033 10.185L29.7062 16.2879C30.9996 15.9646 32.495 15.7625 34.1117 15.7625ZM5.69875 3.71833L0 9.41708L13.9033 23.3204C13.9033 31.7271 20.2083 36.3346 29.7062 39.1233L43.8925 53.3096C42.5183 55.29 39.6488 56.9875 34.1117 56.9875C25.7858 56.9875 22.5121 53.2692 22.0675 48.5H13.1758C13.6608 57.3512 20.2892 62.3225 28.0492 63.9796V72.75H40.1742V64.0604C44.0542 63.3329 47.5704 61.8375 50.1167 59.5337L59.0892 68.5062L64.7879 62.8075L5.69875 3.71833Z" fill="white"/>
</svg>
