<svg width="134" height="125" viewBox="0 0 134 125" fill="none" xmlns="http://www.w3.org/2000/svg">
<g id="Frame 94">
<path id="Vector" d="M67.3201 39.7347V30.1289C67.3201 29.2991 67.6506 28.5032 68.2388 27.9164C68.827 27.3297 69.6248 27 70.4566 27C71.2884 27 72.0862 27.3297 72.6744 27.9164C73.2626 28.5032 73.5931 29.2991 73.5931 30.1289V39.7347C73.5931 40.5645 73.2626 41.3604 72.6744 41.9471C72.0862 42.5339 71.2884 42.8636 70.4566 42.8636C69.6248 42.8636 68.827 42.5339 68.2388 41.9471C67.6506 41.3604 67.3201 40.5645 67.3201 39.7347ZM89.2753 50.6546C89.6881 50.657 90.0973 50.578 90.4794 50.4223C90.8616 50.2666 91.2091 50.0372 91.5022 49.7472L98.371 42.9575C98.9552 42.3712 99.2831 41.5782 99.2831 40.7516C99.2831 39.925 98.9552 39.1319 98.371 38.5457C97.7834 37.9629 96.9884 37.6358 96.1598 37.6358C95.3312 37.6358 94.5363 37.9629 93.9486 38.5457L87.1425 45.3354C86.7127 45.7728 86.421 46.3263 86.3036 46.9275C86.1861 47.5286 86.2481 48.151 86.4819 48.7173C86.7157 49.2836 87.1109 49.7691 87.6186 50.1135C88.1263 50.4578 88.7242 50.646 89.3381 50.6546H89.2753ZM49.3483 83.0075L42.5422 89.7973C42.2482 90.0881 42.0148 90.4342 41.8556 90.8155C41.6964 91.1968 41.6144 91.6057 41.6144 92.0188C41.6144 92.4318 41.6964 92.8408 41.8556 93.2221C42.0148 93.6034 42.2482 93.9494 42.5422 94.2403C42.8337 94.5336 43.1806 94.7664 43.5628 94.9252C43.945 95.0841 44.355 95.1658 44.769 95.1658C45.1831 95.1658 45.593 95.0841 45.9752 94.9252C46.3574 94.7664 46.7043 94.5336 46.9959 94.2403L53.802 87.4506C54.0945 87.1588 54.3264 86.8125 54.4847 86.4313C54.643 86.0502 54.7244 85.6416 54.7244 85.2291C54.7244 84.8165 54.643 84.4079 54.4847 84.0268C54.3264 83.6456 54.0945 83.2993 53.802 83.0075C53.5096 82.7158 53.1624 82.4844 52.7803 82.3265C52.3982 82.1686 51.9887 82.0873 51.5751 82.0873C51.1616 82.0873 50.7521 82.1686 50.37 82.3265C49.9879 82.4844 49.6407 82.7158 49.3483 83.0075ZM46.8705 66.5494C46.8705 65.7196 46.54 64.9238 45.9518 64.337C45.3636 63.7502 44.5658 63.4205 43.734 63.4205H34.1365C33.3046 63.4205 32.5068 63.7502 31.9186 64.337C31.3304 64.9238 31 65.7196 31 66.5494C31 67.3793 31.3304 68.1751 31.9186 68.7619C32.5068 69.3487 33.3046 69.6784 34.1365 69.6784H43.734C44.5658 69.6784 45.3636 69.3487 45.9518 68.7619C46.54 68.1751 46.8705 67.3793 46.8705 66.5494ZM46.8705 38.7021C46.2739 38.3437 45.5746 38.1935 44.883 38.2753C44.1914 38.3571 43.5468 38.6662 43.0507 39.1539C42.5547 39.6416 42.2354 40.2801 42.1434 40.9688C42.0513 41.6575 42.1916 42.3571 42.5422 42.9575L49.3483 49.7472C49.6413 50.0372 49.9889 50.2666 50.371 50.4223C50.7532 50.578 51.1624 50.657 51.5751 50.6546C51.9879 50.657 52.3971 50.578 52.7792 50.4223C53.1614 50.2666 53.509 50.0372 53.802 49.7472C54.3862 49.161 54.7141 48.3679 54.7141 47.5413C54.7141 46.7147 54.3862 45.9217 53.802 45.3354L46.8705 38.7021ZM101.978 99.0901C101.39 99.6729 100.595 100 99.7668 100C98.9382 100 98.1432 99.6729 97.5556 99.0901L86.1702 87.7322L78.0782 98.214C77.786 98.5927 77.4108 98.8995 76.9813 99.1111C76.5517 99.3226 76.0794 99.4332 75.6004 99.4343H75.0672C74.5037 99.336 73.9779 99.0857 73.5466 98.7107C73.1154 98.3357 72.7953 97.8502 72.6208 97.3067L61.6118 62.4819C61.4331 61.9331 61.41 61.3457 61.5451 60.7847C61.6802 60.2237 61.9681 59.7108 62.377 59.3028C62.786 58.8949 63.3001 58.6076 63.8625 58.4729C64.4249 58.3382 65.0136 58.3612 65.5637 58.5394L100.284 69.6784C100.834 69.8487 101.326 70.1667 101.707 70.5975C102.087 71.0283 102.342 71.5552 102.442 72.1207C102.543 72.6862 102.485 73.2683 102.276 73.8033C102.067 74.3383 101.714 74.8056 101.257 75.154L90.7495 83.2266L102.103 94.5532C102.678 95.1381 103 95.9244 103 96.7434C103 97.5625 102.678 98.3488 102.103 98.9337L101.978 99.0901ZM83.5042 80.9424L83.7238 80.7547L83.9434 80.567L92.5372 73.965L69.2961 66.5494L76.7295 89.7034L83.5042 80.9424Z" fill="white"/>
</g>
</svg>

