<svg width="72" height="73" viewBox="0 0 72 73" fill="none" xmlns="http://www.w3.org/2000/svg">
<path d="M36.3201 12.7347V3.12891C36.3201 2.29907 36.6506 1.50322 37.2388 0.916436C37.827 0.329651 38.6248 0 39.4566 0C40.2884 0 41.0862 0.329651 41.6744 0.916436C42.2626 1.50322 42.5931 2.29907 42.5931 3.12891V12.7347C42.5931 13.5645 42.2626 14.3604 41.6744 14.9471C41.0862 15.5339 40.2884 15.8636 39.4566 15.8636C38.6248 15.8636 37.827 15.5339 37.2388 14.9471C36.6506 14.3604 36.3201 13.5645 36.3201 12.7347ZM58.2753 23.6546C58.6881 23.657 59.0973 23.578 59.4794 23.4223C59.8616 23.2666 60.2091 23.0372 60.5022 22.7472L67.371 15.9575C67.9552 15.3712 68.2831 14.5782 68.2831 13.7516C68.2831 12.925 67.9552 12.1319 67.371 11.5457C66.7834 10.9629 65.9884 10.6358 65.1598 10.6358C64.3312 10.6358 63.5363 10.9629 62.9486 11.5457L56.1425 18.3354C55.7127 18.7728 55.421 19.3263 55.3036 19.9275C55.1861 20.5286 55.2481 21.151 55.4819 21.7173C55.7157 22.2836 56.1109 22.7691 56.6186 23.1135C57.1263 23.4578 57.7242 23.646 58.3381 23.6546H58.2753ZM18.3483 56.0075L11.5422 62.7973C11.2482 63.0881 11.0148 63.4342 10.8556 63.8155C10.6964 64.1968 10.6144 64.6057 10.6144 65.0188C10.6144 65.4318 10.6964 65.8408 10.8556 66.2221C11.0148 66.6034 11.2482 66.9494 11.5422 67.2403C11.8337 67.5336 12.1806 67.7664 12.5628 67.9252C12.945 68.0841 13.355 68.1658 13.769 68.1658C14.1831 68.1658 14.593 68.0841 14.9752 67.9252C15.3574 67.7664 15.7043 67.5336 15.9959 67.2403L22.802 60.4506C23.0945 60.1588 23.3264 59.8125 23.4847 59.4313C23.643 59.0502 23.7244 58.6416 23.7244 58.2291C23.7244 57.8165 23.643 57.4079 23.4847 57.0268C23.3264 56.6456 23.0945 56.2993 22.802 56.0075C22.5096 55.7158 22.1624 55.4844 21.7803 55.3265C21.3982 55.1686 20.9887 55.0873 20.5751 55.0873C20.1616 55.0873 19.7521 55.1686 19.37 55.3265C18.9879 55.4844 18.6407 55.7158 18.3483 56.0075ZM15.8705 39.5494C15.8705 38.7196 15.54 37.9238 14.9518 37.337C14.3636 36.7502 13.5658 36.4205 12.734 36.4205H3.13645C2.30462 36.4205 1.50685 36.7502 0.918647 37.337C0.330448 37.9238 0 38.7196 0 39.5494C0 40.3793 0.330448 41.1751 0.918647 41.7619C1.50685 42.3487 2.30462 42.6784 3.13645 42.6784H12.734C13.5658 42.6784 14.3636 42.3487 14.9518 41.7619C15.54 41.1751 15.8705 40.3793 15.8705 39.5494ZM15.8705 11.7021C15.2739 11.3437 14.5746 11.1935 13.883 11.2753C13.1914 11.3571 12.5468 11.6662 12.0507 12.1539C11.5547 12.6416 11.2354 13.2801 11.1434 13.9688C11.0513 14.6575 11.1916 15.3571 11.5422 15.9575L18.3483 22.7472C18.6413 23.0372 18.9889 23.2666 19.371 23.4223C19.7532 23.578 20.1624 23.657 20.5751 23.6546C20.9879 23.657 21.3971 23.578 21.7792 23.4223C22.1614 23.2666 22.509 23.0372 22.802 22.7472C23.3862 22.161 23.7141 21.3679 23.7141 20.5413C23.7141 19.7147 23.3862 18.9217 22.802 18.3354L15.8705 11.7021ZM70.978 72.0901C70.3903 72.6729 69.5954 73 68.7668 73C67.9382 73 67.1432 72.6729 66.5556 72.0901L55.1702 60.7322L47.0782 71.214C46.786 71.5927 46.4108 71.8995 45.9813 72.1111C45.5517 72.3226 45.0794 72.4332 44.6004 72.4343H44.0672C43.5037 72.336 42.9779 72.0857 42.5466 71.7107C42.1154 71.3357 41.7953 70.8502 41.6208 70.3067L30.6118 35.4819C30.4331 34.9331 30.41 34.3457 30.5451 33.7847C30.6802 33.2237 30.9681 32.7108 31.377 32.3028C31.786 31.8949 32.3001 31.6076 32.8625 31.4729C33.4249 31.3382 34.0136 31.3612 34.5637 31.5394L69.2843 42.6784C69.834 42.8487 70.3262 43.1667 70.7068 43.5975C71.0875 44.0283 71.3419 44.5552 71.4424 45.1207C71.5428 45.6862 71.4852 46.2683 71.2761 46.8033C71.0669 47.3383 70.7142 47.8056 70.2566 48.154L59.7495 56.2266L71.1034 67.5532C71.6781 68.1381 72 68.9244 72 69.7434C72 70.5625 71.6781 71.3488 71.1034 71.9337L70.978 72.0901ZM52.5042 53.9424L52.7238 53.7547L52.9434 53.567L61.5372 46.965L38.2961 39.5494L45.7295 62.7034L52.5042 53.9424Z" fill="white"/>
</svg>
