<svg xmlns="http://www.w3.org/2000/svg" width="59" height="60" viewBox="0 0 59 60" fill="none">
  <g clip-path="url(#clip0_3492_20292)">
    <path
      d="M48.66 0.5H10.34C7.59879 0.503608 4.97086 1.59416 3.03251 3.53251C1.09416 5.47086 0.00360761 8.09879 0 10.84L0 49.16C0.00360761 51.9012 1.09416 54.5291 3.03251 56.4675C4.97086 58.4058 7.59879 59.4964 10.34 59.5H48.66C51.4012 59.4964 54.0291 58.4058 55.9675 56.4675C57.9058 54.5291 58.9964 51.9012 59 49.16V10.84C58.9964 8.09879 57.9058 5.47086 55.9675 3.53251C54.0291 1.59416 51.4012 0.503608 48.66 0.5ZM53 49.16C53.0005 49.7301 52.8886 50.2947 52.6707 50.8214C52.4528 51.3482 52.1331 51.8269 51.73 52.23C51.3269 52.6331 50.8482 52.9528 50.3214 53.1707C49.7947 53.3886 49.2301 53.5005 48.66 53.5H10.34C9.76994 53.5005 9.20534 53.3886 8.67855 53.1707C8.15176 52.9528 7.67311 52.6331 7.26999 52.23C6.86688 51.8269 6.54721 51.3482 6.32929 50.8214C6.11137 50.2947 5.99947 49.7301 5.99999 49.16V10.84C5.99947 10.2699 6.11137 9.70534 6.32929 9.17855C6.54721 8.65176 6.86688 8.17311 7.26999 7.76999C7.67311 7.36688 8.15176 7.04721 8.67855 6.82929C9.20534 6.61137 9.76994 6.49947 10.34 6.49999H48.66C49.2301 6.49947 49.7947 6.61137 50.3214 6.82929C50.8482 7.04721 51.3269 7.36688 51.73 7.76999C52.1331 8.17311 52.4528 8.65176 52.6707 9.17855C52.8886 9.70534 53.0005 10.2699 53 10.84V49.16Z"
      fill="#F7971E" />
    <path d="M32.4996 14.7768H26.5005V34.3489H32.4996V14.7768Z" fill="#F7971E" />
    <path d="M32.4996 39.2241H26.5005V45.2232H32.4996V39.2241Z" fill="#F7971E" />
  </g>
  <defs>
    <clipPath id="clip0_3492_20292">
      <rect width="59" height="59" fill="white" transform="translate(0 0.5)" />
    </clipPath>
  </defs>
</svg>