<svg width="21" height="20" viewBox="0 0 21 20" fill="none" xmlns="http://www.w3.org/2000/svg">
<path fill-rule="evenodd" clip-rule="evenodd" d="M7.6582 8.7666V12.0999C7.6582 12.8708 8.1032 13.6183 8.94987 14.1958C9.95654 14.8824 11.5757 15.3499 13.4082 15.3499C15.2407 15.3499 16.8599 14.8824 17.8665 14.1958C18.7132 13.6183 19.1582 12.8708 19.1582 12.0999V8.7666C19.1582 8.35243 18.8224 8.0166 18.4082 8.0166C17.994 8.0166 17.6582 8.35243 17.6582 8.7666V12.0999C17.6582 12.4341 17.3882 12.7066 17.0207 12.9566C16.2074 13.5116 14.889 13.8499 13.4082 13.8499C11.9274 13.8499 10.609 13.5116 9.7957 12.9566C9.4282 12.7066 9.1582 12.4341 9.1582 12.0999V8.7666C9.1582 8.35243 8.82237 8.0166 8.4082 8.0166C7.99404 8.0166 7.6582 8.35243 7.6582 8.7666Z" fill="white"/>
<path fill-rule="evenodd" clip-rule="evenodd" d="M7.6582 12.1006V15.4339C7.6582 16.2048 8.1032 16.9523 8.94987 17.5298C9.95654 18.2164 11.5757 18.6839 13.4082 18.6839C15.2407 18.6839 16.8599 18.2164 17.8665 17.5298C18.7132 16.9523 19.1582 16.2048 19.1582 15.4339V12.1006C19.1582 11.6864 18.8224 11.3506 18.4082 11.3506C17.994 11.3506 17.6582 11.6864 17.6582 12.1006V15.4339C17.6582 15.7681 17.3882 16.0406 17.0207 16.2906C16.2074 16.8456 14.889 17.1839 13.4082 17.1839C11.9274 17.1839 10.609 16.8456 9.7957 16.2906C9.4282 16.0406 9.1582 15.7681 9.1582 15.4339V12.1006C9.1582 11.6864 8.82237 11.3506 8.4082 11.3506C7.99404 11.3506 7.6582 11.6864 7.6582 12.1006Z" fill="white"/>
<path fill-rule="evenodd" clip-rule="evenodd" d="M13.4082 5.5166C11.5765 5.5166 9.95737 5.9841 8.9507 6.67077C8.10404 7.24827 7.6582 7.99577 7.6582 8.7666C7.6582 9.53743 8.10404 10.2849 8.9507 10.8624C9.95737 11.5491 11.5765 12.0166 13.4082 12.0166C15.2399 12.0166 16.859 11.5491 17.8657 10.8624C18.7124 10.2849 19.1582 9.53743 19.1582 8.7666C19.1582 7.99577 18.7124 7.24827 17.8657 6.67077C16.859 5.9841 15.2399 5.5166 13.4082 5.5166ZM13.4082 7.0166C14.8882 7.0166 16.2065 7.35577 17.0207 7.90993C17.3882 8.16077 17.6582 8.43243 17.6582 8.7666C17.6582 9.10077 17.3882 9.37243 17.0207 9.62327C16.2065 10.1774 14.8882 10.5166 13.4082 10.5166C11.9282 10.5166 10.6099 10.1774 9.7957 9.62327C9.4282 9.37243 9.1582 9.10077 9.1582 8.7666C9.1582 8.43243 9.4282 8.16077 9.7957 7.90993C10.6099 7.35577 11.9282 7.0166 13.4082 7.0166Z" fill="white"/>
<path fill-rule="evenodd" clip-rule="evenodd" d="M0.992188 4.16699V7.50033C0.992188 8.13032 1.28302 8.73699 1.84802 9.25283C2.51552 9.86283 3.60552 10.3578 4.93135 10.5945C5.33885 10.667 5.72802 10.3953 5.80135 9.98783C5.87385 9.57949 5.60135 9.19033 5.19385 9.11783C4.34885 8.96699 3.61969 8.69866 3.10552 8.34032C2.75135 8.09449 2.49219 7.82699 2.49219 7.50033V4.16699C2.49219 3.75283 2.15635 3.41699 1.74219 3.41699C1.32802 3.41699 0.992188 3.75283 0.992188 4.16699Z" fill="white"/>
<path fill-rule="evenodd" clip-rule="evenodd" d="M0.992188 7.50033V10.8337C0.992188 11.5378 1.35969 12.2187 2.06719 12.7712C2.90302 13.4245 4.25885 13.9137 5.84969 14.047C6.26219 14.0812 6.62469 13.7745 6.65885 13.362C6.69385 12.9495 6.38719 12.5862 5.97469 12.552C4.72469 12.4478 3.64719 12.102 2.98969 11.5887C2.70135 11.3637 2.49219 11.1212 2.49219 10.8337V7.50033C2.49219 7.08616 2.15635 6.75033 1.74219 6.75033C1.32802 6.75033 0.992188 7.08616 0.992188 7.50033ZM5.96469 5.88449C4.71885 5.77866 3.64385 5.43283 2.98885 4.92033C2.70052 4.69533 2.49219 4.45366 2.49219 4.16699C2.49219 3.83283 2.76219 3.56116 3.12969 3.31033C3.94385 2.75616 5.26219 2.41699 6.74219 2.41699C8.22219 2.41699 9.54052 2.75616 10.3547 3.31033C10.7222 3.56116 10.9922 3.83283 10.9922 4.16699C10.9922 4.58116 11.328 4.91699 11.7422 4.91699C12.1564 4.91699 12.4922 4.58116 12.4922 4.16699C12.4922 3.39616 12.0464 2.64866 11.1997 2.07116C10.193 1.38449 8.57385 0.916992 6.74219 0.916992C4.91052 0.916992 3.29135 1.38449 2.28469 2.07116C1.43802 2.64866 0.992188 3.39616 0.992188 4.16699C0.992188 4.87033 1.35885 5.55032 2.06469 6.10199C2.89885 6.75449 4.25219 7.24449 5.83802 7.37866C6.25052 7.41366 6.61385 7.10783 6.64885 6.69533C6.68385 6.28283 6.37719 5.91949 5.96469 5.88449Z" fill="white"/>
</svg>
